<?xml version="1.0" standalone="no"?>
<!DOCTYPE svg PUBLIC "-//W3C//DTD SVG 20010904//EN" "http://www.w3.org/TR/2001/REC-SVG-20010904/DTD/svg10.dtd">
<svg version="1.0" xmlns="http://www.w3.org/2000/svg" width="647.000000pt" height="908.000000pt"
	viewBox="0 0 647.000000 908.000000" preserveAspectRatio="xMidYMid meet">

	<g transform="translate(0.000000,908.000000) scale(0.100000,-0.100000)" fill="#000000" stroke="none">
		<path d="M6385 9053 c-8 -7 -17 -30 -21 -49 -4 -20 -13 -38 -20 -41 -8 -3 -14
-11 -14 -17 0 -14 -61 -167 -84 -211 -9 -16 -16 -37 -16 -45 0 -9 -5 -21 -10
-26 -6 -6 -12 -20 -15 -32 -2 -12 -10 -36 -18 -54 -36 -80 -71 -156 -89 -193
-11 -22 -21 -47 -23 -55 -2 -8 -19 -49 -38 -90 -19 -41 -40 -93 -48 -115 -7
-22 -18 -47 -25 -55 -6 -8 -14 -28 -18 -44 -4 -17 -20 -56 -36 -88 -16 -32
-30 -62 -30 -66 -1 -4 -7 -20 -15 -37 -7 -16 -25 -57 -39 -90 -15 -33 -31 -68
-36 -77 -6 -10 -10 -24 -10 -32 0 -7 -7 -19 -15 -26 -8 -7 -15 -22 -15 -34 0
-11 -13 -46 -29 -76 -15 -30 -31 -68 -35 -85 -4 -16 -12 -32 -17 -36 -5 -3
-11 -14 -13 -25 -2 -10 -11 -32 -20 -49 -9 -16 -16 -37 -16 -46 0 -9 -6 -22
-13 -28 -8 -6 -20 -30 -27 -53 -8 -24 -25 -62 -37 -85 -13 -24 -23 -44 -22
-45 1 -3 -12 -36 -38 -95 -7 -18 -18 -35 -23 -38 -6 -4 -8 -10 -5 -15 3 -5 -1
-15 -9 -23 -8 -7 -17 -28 -19 -46 -3 -18 -13 -41 -21 -50 -9 -10 -16 -24 -16
-32 0 -8 -9 -27 -20 -44 -11 -16 -20 -40 -20 -52 0 -13 -4 -23 -10 -23 -5 0
-10 -8 -10 -17 0 -10 -11 -40 -25 -68 -13 -27 -25 -56 -25 -62 0 -7 -4 -13 -9
-13 -5 0 -11 -14 -15 -32 -3 -17 -11 -38 -18 -45 -7 -8 -24 -46 -40 -84 -30
-75 -28 -95 11 -136 l22 -23 37 20 c34 19 62 26 62 16 0 -3 -13 -41 -30 -85
-16 -45 -29 -82 -29 -84 0 -1 -4 -15 -10 -30 -6 -16 -11 -34 -11 -42 0 -8 -4
-16 -9 -19 -4 -3 -18 -36 -30 -73 -12 -37 -27 -77 -32 -88 -5 -11 -11 -29 -13
-40 -2 -11 -11 -36 -19 -55 -32 -72 -67 -171 -67 -188 0 -9 -7 -26 -15 -36 -8
-10 -12 -23 -9 -28 3 -4 -4 -23 -15 -42 -12 -18 -21 -43 -21 -54 0 -11 -7 -27
-15 -35 -8 -8 -11 -17 -8 -20 5 -6 -8 -44 -42 -122 -7 -16 -18 -50 -25 -75 -7
-25 -16 -47 -21 -50 -4 -3 -11 -25 -15 -49 -6 -37 -5 -43 8 -39 8 4 19 -2 26
-12 13 -21 50 -16 59 6 3 8 9 12 13 9 4 -3 25 9 45 25 47 37 58 38 39 3 -7
-16 -14 -35 -14 -44 0 -9 -3 -19 -6 -22 -11 -11 -43 -110 -44 -134 0 -12 -4
-25 -10 -28 -5 -3 -10 -18 -10 -33 0 -15 -7 -36 -15 -46 -8 -11 -15 -28 -15
-38 0 -10 -4 -26 -9 -36 -15 -28 -61 -178 -61 -198 0 -11 -7 -28 -15 -38 -8
-11 -15 -28 -15 -39 0 -10 -5 -28 -12 -40 -6 -12 -12 -29 -13 -37 -2 -18 -38
-123 -45 -130 -3 -3 -6 -9 -6 -15 -3 -19 -36 -130 -46 -151 -5 -12 -11 -33
-11 -48 -1 -14 -5 -26 -9 -26 -4 0 -10 -16 -14 -37 -4 -20 -13 -48 -20 -62 -8
-14 -14 -36 -14 -48 0 -12 -5 -23 -10 -25 -6 -2 -12 -14 -14 -28 -1 -14 -8
-38 -14 -53 -7 -16 -10 -32 -7 -37 3 -5 -2 -15 -11 -24 -8 -9 -16 -26 -17 -38
-1 -13 -7 -29 -14 -36 -20 -20 9 -72 40 -72 7 0 24 11 37 25 13 14 27 25 31
25 11 0 3 -48 -10 -64 -7 -8 -10 -19 -7 -24 3 -5 -2 -21 -10 -36 -7 -16 -14
-32 -14 -36 0 -5 -5 -21 -11 -37 -54 -134 -148 -411 -141 -418 4 -3 1 -10 -6
-14 -7 -4 -14 -19 -16 -32 -4 -26 -9 -40 -37 -108 -11 -24 -19 -49 -19 -56 0
-7 -7 -26 -15 -41 -8 -16 -12 -36 -10 -45 3 -9 -4 -24 -15 -34 -11 -10 -20
-28 -20 -40 0 -11 -4 -25 -10 -31 -5 -5 -12 -27 -16 -49 -3 -22 -9 -44 -12
-50 -4 -5 -8 -14 -9 -20 -5 -20 -35 -110 -44 -130 -4 -11 -24 -67 -43 -125
-20 -58 -47 -136 -60 -175 -14 -38 -25 -77 -26 -85 0 -8 -12 -24 -27 -36 l-28
-22 31 -31 31 -30 28 22 c16 12 44 35 62 51 l34 29 -7 -29 c-4 -16 -13 -45
-20 -66 -7 -20 -10 -39 -6 -43 4 -3 1 -9 -6 -14 -6 -4 -13 -20 -14 -37 -1 -16
-5 -34 -9 -39 -5 -6 -11 -26 -14 -45 -3 -18 -9 -38 -13 -44 -4 -6 -8 -20 -8
-31 -2 -22 -21 -78 -36 -109 -6 -11 -12 -33 -15 -50 -3 -17 -8 -35 -13 -41 -4
-5 -10 -28 -14 -51 -3 -23 -13 -59 -22 -80 -10 -21 -19 -54 -21 -73 -2 -18
-10 -45 -17 -60 -8 -14 -17 -42 -21 -61 -7 -36 -30 -116 -46 -160 -5 -14 -10
-37 -13 -52 -2 -14 -9 -36 -16 -47 -6 -12 -8 -26 -4 -32 3 -6 -2 -19 -11 -29
-9 -10 -15 -24 -13 -32 1 -7 -2 -26 -8 -43 -27 -74 -35 -102 -38 -122 -2 -13
-8 -28 -13 -35 -5 -7 -10 -26 -11 -42 -1 -16 -6 -34 -11 -40 -4 -6 -11 -28
-15 -48 -4 -21 -12 -38 -17 -38 -6 0 -9 -6 -6 -12 2 -7 -2 -26 -8 -42 -19 -44
-9 -66 31 -66 33 0 35 2 94 122 33 67 60 127 60 133 0 5 11 23 25 39 14 16 25
37 25 48 0 10 4 18 10 18 5 0 12 15 16 34 3 19 15 42 25 52 10 9 19 22 19 29
0 16 24 65 32 65 3 0 12 16 18 35 6 19 15 35 20 35 4 0 10 13 13 29 3 16 14
37 24 47 10 9 18 20 18 23 0 16 29 71 36 71 5 0 9 7 9 15 0 14 137 292 150
305 3 3 29 55 59 115 29 61 57 117 62 125 5 8 17 31 27 50 9 19 23 41 30 48 6
7 12 18 12 24 0 15 52 122 62 126 4 2 12 20 19 40 6 20 15 39 18 42 3 3 15 23
26 44 49 96 58 111 66 114 5 2 7 8 4 12 -3 5 4 24 14 42 11 18 29 51 41 73 11
22 27 51 35 65 8 14 15 33 15 43 0 9 4 17 10 17 5 0 13 12 16 28 4 15 13 35
22 44 38 45 -35 74 -95 37 -20 -13 -33 -17 -29 -11 4 7 10 22 12 34 3 13 8 34
11 47 3 14 17 40 29 59 13 19 21 39 18 44 -3 5 -1 14 5 21 5 7 13 28 16 46 3
18 12 40 20 48 8 8 15 22 15 32 0 9 4 21 10 27 5 5 12 27 14 48 3 21 11 45 18
53 6 8 13 24 13 36 1 11 7 23 13 25 7 2 12 14 12 27 0 13 5 36 12 52 6 15 12
33 12 38 1 6 6 19 12 30 7 11 21 50 33 87 11 37 27 78 36 91 13 20 33 83 47
148 2 8 8 18 14 24 10 9 42 95 48 128 1 7 7 22 14 34 7 12 12 29 12 37 0 9 9
30 19 47 11 17 17 37 15 44 -3 6 2 18 11 25 8 7 15 24 15 39 1 14 7 37 15 51
18 32 20 83 3 77 -7 -2 -20 -1 -29 4 -9 5 -27 2 -43 -7 -16 -8 -39 -14 -51
-14 -13 0 -26 -6 -28 -12 -4 -10 -6 -10 -6 -1 -1 6 4 15 9 18 6 3 10 17 10 29
0 13 7 29 15 36 8 7 15 22 15 33 0 21 15 73 33 117 6 14 11 27 12 30 1 3 7 19
14 35 7 17 19 54 27 83 8 30 20 63 26 75 7 12 13 24 13 27 1 3 7 19 14 35 7
17 18 53 24 80 6 28 17 56 24 63 11 12 14 21 13 47 0 3 6 18 15 35 8 16 15 38
15 48 0 11 7 22 15 26 10 3 15 19 15 46 0 22 5 40 10 40 6 0 10 10 10 23 0 12
7 33 16 45 9 13 14 26 11 28 -8 8 13 64 24 64 5 0 9 15 9 33 0 18 5 38 12 45
7 7 8 12 3 12 -4 0 -1 8 7 18 8 9 18 31 22 47 4 17 25 80 48 142 58 160 46
190 -56 138 -65 -33 -78 -32 -70 3 4 15 11 35 15 44 5 9 9 25 9 34 0 10 6 25
13 33 11 13 29 71 41 126 1 6 10 25 19 43 10 17 15 32 12 32 -3 0 4 18 15 40
11 22 18 40 15 40 -3 0 1 13 10 30 8 16 14 33 13 37 0 4 4 22 11 38 7 17 14
40 16 53 1 13 7 28 14 35 6 6 11 20 11 30 0 18 5 31 40 112 8 17 13 33 12 38
-1 4 10 35 24 69 14 34 27 69 29 77 5 23 34 113 45 136 21 45 50 131 50 148 0
13 -8 17 -34 17 -22 0 -36 5 -38 14 -2 11 -16 9 -66 -11 -65 -26 -86 -26 -58
2 9 9 17 22 18 28 3 23 5 32 17 60 6 16 9 32 6 37 -3 5 1 21 9 37 8 15 20 48
26 73 7 25 17 56 22 70 6 14 12 38 14 54 2 16 8 34 14 40 5 5 10 18 10 27 0
10 5 30 12 46 6 15 10 34 9 40 -1 7 4 23 11 35 6 13 14 33 15 46 2 12 17 60
34 105 29 80 38 111 42 152 1 11 5 22 8 25 10 9 39 108 39 134 0 13 4 26 10
28 5 2 11 19 14 40 2 20 9 45 15 56 6 12 11 30 11 41 0 10 4 21 10 23 5 2 11
17 12 33 1 17 5 35 9 40 5 6 11 26 14 45 3 19 11 40 16 47 6 7 8 16 5 21 -3 5
1 20 8 34 8 14 16 41 19 59 3 19 10 52 17 74 6 22 13 53 15 68 3 15 12 54 22
85 9 31 18 64 19 72 9 46 25 118 38 160 8 27 12 51 9 53 -2 3 1 15 7 27 13 24
19 50 25 97 2 18 6 36 8 40 6 9 16 68 23 128 2 22 7 54 10 70 3 17 7 39 8 50
2 11 7 32 11 47 4 15 9 44 10 65 2 21 7 54 10 74 7 35 6 37 -25 41 -19 3 -37
-1 -45 -9z" />
		<path d="M2605 8993 c-8 -7 -17 -30 -21 -49 -4 -20 -13 -38 -20 -41 -8 -3 -14
-11 -14 -17 0 -14 -61 -167 -84 -211 -9 -16 -16 -37 -16 -45 0 -9 -5 -21 -10
-26 -6 -6 -12 -20 -15 -32 -2 -12 -10 -36 -18 -54 -36 -80 -71 -156 -89 -193
-11 -22 -21 -47 -23 -55 -2 -8 -19 -49 -38 -90 -19 -41 -40 -93 -48 -115 -7
-22 -18 -47 -25 -55 -6 -8 -14 -28 -18 -44 -4 -17 -20 -56 -36 -88 -16 -32
-30 -62 -30 -66 -1 -4 -7 -20 -15 -37 -7 -16 -25 -57 -39 -90 -15 -33 -31 -68
-36 -77 -6 -10 -10 -24 -10 -32 0 -7 -7 -19 -15 -26 -8 -7 -15 -22 -15 -34 0
-11 -13 -46 -29 -76 -15 -30 -31 -68 -35 -85 -4 -16 -12 -32 -17 -36 -5 -3
-11 -14 -13 -25 -2 -10 -11 -32 -20 -49 -9 -16 -16 -37 -16 -46 0 -9 -6 -22
-13 -28 -8 -6 -20 -30 -27 -53 -8 -24 -25 -62 -37 -85 -13 -24 -23 -44 -22
-45 1 -3 -12 -36 -38 -95 -7 -18 -18 -35 -23 -38 -6 -4 -8 -10 -5 -15 3 -5 -1
-15 -9 -23 -8 -7 -17 -28 -19 -46 -3 -18 -13 -41 -21 -50 -9 -10 -16 -24 -16
-32 0 -8 -9 -27 -20 -44 -11 -16 -20 -40 -20 -52 0 -13 -4 -23 -10 -23 -5 0
-10 -8 -10 -17 0 -10 -11 -40 -25 -68 -13 -27 -25 -56 -25 -62 0 -7 -4 -13 -9
-13 -5 0 -11 -14 -15 -32 -3 -17 -11 -38 -18 -45 -7 -8 -24 -46 -40 -84 -30
-75 -28 -95 11 -136 l22 -23 37 20 c34 19 62 26 62 16 0 -3 -13 -41 -30 -85
-16 -45 -29 -82 -29 -84 0 -1 -4 -15 -10 -30 -6 -16 -11 -34 -11 -42 0 -8 -4
-16 -9 -19 -4 -3 -18 -36 -30 -73 -12 -37 -27 -77 -32 -88 -5 -11 -11 -29 -13
-40 -2 -11 -11 -36 -19 -55 -32 -72 -67 -171 -67 -188 0 -9 -7 -26 -15 -36 -8
-10 -12 -23 -9 -28 3 -4 -4 -23 -15 -42 -12 -18 -21 -43 -21 -54 0 -11 -7 -27
-15 -35 -8 -8 -11 -17 -8 -20 5 -6 -8 -44 -42 -122 -7 -16 -18 -50 -25 -75 -7
-25 -16 -47 -21 -50 -4 -3 -11 -25 -15 -49 -6 -37 -5 -43 8 -39 8 4 19 -2 26
-12 13 -21 50 -16 59 6 3 8 9 12 13 9 4 -3 25 9 45 25 47 37 58 38 39 3 -7
-16 -14 -35 -14 -44 0 -9 -3 -19 -6 -22 -11 -11 -43 -110 -44 -134 0 -12 -4
-25 -10 -28 -6 -3 -10 -18 -10 -33 0 -15 -7 -36 -15 -46 -8 -11 -15 -28 -15
-38 0 -10 -4 -26 -9 -36 -15 -28 -61 -178 -61 -198 0 -11 -7 -28 -15 -38 -8
-11 -15 -28 -15 -39 0 -10 -5 -28 -12 -40 -6 -12 -12 -29 -13 -37 -2 -18 -38
-123 -45 -130 -3 -3 -6 -9 -6 -15 -3 -19 -36 -130 -46 -151 -5 -12 -11 -33
-11 -48 -1 -14 -5 -26 -9 -26 -4 0 -10 -16 -14 -37 -4 -20 -13 -48 -20 -62 -8
-14 -14 -36 -14 -48 0 -12 -5 -23 -10 -25 -6 -2 -12 -14 -14 -28 -1 -14 -8
-38 -14 -53 -7 -16 -10 -32 -7 -37 3 -5 -2 -15 -11 -24 -8 -9 -16 -26 -17 -38
-1 -13 -7 -29 -14 -36 -20 -20 9 -72 40 -72 7 0 24 11 37 25 13 14 27 25 31
25 11 0 3 -48 -10 -64 -7 -8 -10 -19 -7 -24 3 -5 -2 -21 -10 -36 -7 -16 -14
-32 -14 -36 0 -5 -5 -21 -11 -37 -54 -134 -148 -411 -141 -418 4 -3 1 -10 -6
-14 -7 -4 -14 -19 -16 -32 -4 -26 -9 -40 -37 -108 -11 -24 -19 -49 -19 -56 0
-7 -7 -26 -15 -41 -8 -16 -12 -36 -10 -45 3 -9 -4 -24 -15 -34 -11 -10 -20
-28 -20 -40 0 -11 -4 -25 -10 -31 -5 -5 -12 -27 -16 -49 -3 -22 -9 -44 -12
-50 -4 -5 -8 -14 -9 -20 -5 -20 -35 -110 -44 -130 -4 -11 -24 -67 -43 -125
-20 -58 -47 -136 -60 -175 -14 -38 -25 -77 -26 -85 0 -8 -12 -24 -27 -36 l-28
-22 31 -31 31 -30 28 22 c16 12 44 35 62 51 l34 29 -7 -29 c-4 -16 -13 -45
-20 -66 -7 -20 -10 -39 -6 -43 4 -3 1 -9 -6 -14 -6 -4 -13 -20 -14 -37 -1 -16
-5 -34 -9 -39 -5 -6 -11 -26 -14 -45 -3 -18 -9 -38 -13 -44 -4 -6 -8 -20 -8
-31 -2 -22 -21 -78 -36 -109 -6 -11 -12 -33 -15 -50 -3 -17 -8 -35 -13 -41 -4
-5 -10 -28 -14 -51 -3 -23 -13 -59 -22 -80 -10 -21 -19 -54 -21 -73 -2 -18
-10 -45 -17 -60 -8 -14 -17 -42 -21 -61 -7 -36 -30 -116 -46 -160 -5 -14 -10
-37 -13 -52 -2 -14 -9 -36 -16 -47 -6 -12 -8 -26 -4 -32 3 -6 -2 -19 -11 -29
-9 -10 -15 -24 -13 -32 1 -7 -2 -26 -8 -43 -27 -74 -35 -102 -38 -122 -2 -13
-8 -28 -13 -35 -5 -7 -10 -26 -11 -42 -1 -16 -6 -34 -11 -40 -4 -6 -11 -28
-15 -48 -4 -21 -12 -38 -17 -38 -6 0 -9 -6 -6 -12 2 -7 -2 -26 -8 -42 -19 -44
-9 -66 31 -66 33 0 35 2 94 122 33 67 60 127 60 133 0 5 11 23 25 39 14 16 25
37 25 48 0 10 4 18 10 18 5 0 12 15 16 34 3 19 15 42 25 52 10 9 19 22 19 29
0 16 24 65 32 65 3 0 12 16 18 35 6 19 15 35 20 35 4 0 10 13 13 29 3 16 14
37 24 47 10 9 18 20 18 23 0 16 29 71 36 71 5 0 9 7 9 15 0 14 137 292 150
305 3 3 29 55 59 115 29 61 57 117 62 125 5 8 17 31 27 50 9 19 23 41 30 48 6
7 12 18 12 24 0 15 52 122 62 126 4 2 12 20 19 40 6 20 15 39 18 42 3 3 15 23
26 44 49 96 58 111 66 114 5 2 7 8 4 12 -3 5 4 24 14 42 11 18 29 51 41 73 11
22 27 51 35 65 8 14 15 33 15 43 0 9 4 17 10 17 5 0 13 12 16 28 4 15 13 35
22 44 38 45 -35 74 -95 37 -20 -13 -33 -17 -29 -11 4 7 10 22 12 34 3 13 8 34
11 47 3 14 17 40 29 59 13 19 21 39 18 44 -3 5 -1 14 5 21 5 7 13 28 16 46 3
18 12 40 20 48 8 8 15 22 15 32 0 9 4 21 10 27 5 5 12 27 14 48 3 21 11 45 18
53 6 8 13 24 13 36 1 11 7 23 13 25 7 2 12 14 12 27 0 13 5 36 12 52 6 15 12
33 12 38 1 6 6 19 12 30 7 11 21 50 33 87 11 37 27 78 36 91 13 20 33 83 47
148 2 8 8 18 14 24 10 9 42 95 48 128 1 7 7 22 14 34 7 12 12 29 12 37 0 9 9
30 19 47 11 17 17 37 15 44 -3 6 2 18 11 25 8 7 15 24 15 39 1 14 7 37 15 51
18 32 20 83 3 77 -7 -2 -20 -1 -29 4 -9 5 -27 2 -43 -7 -16 -8 -39 -14 -51
-14 -13 0 -26 -6 -28 -12 -4 -10 -6 -10 -6 -1 -1 6 4 15 9 18 6 3 10 17 10 29
0 13 7 29 15 36 8 7 15 22 15 33 0 21 15 73 33 117 6 14 11 27 12 30 1 3 7 19
14 35 7 17 19 54 27 83 8 30 20 63 26 75 7 12 13 24 13 27 1 3 7 19 14 35 7
17 18 53 24 80 6 28 17 56 24 63 11 12 14 21 13 47 0 3 6 18 15 35 8 16 15 38
15 48 0 11 7 22 15 26 10 3 15 19 15 46 0 22 5 40 10 40 6 0 10 10 10 23 0 12
7 33 16 45 9 13 14 26 11 28 -8 8 13 64 24 64 5 0 9 15 9 33 0 18 5 38 12 45
7 7 8 12 3 12 -4 0 -1 8 7 18 8 9 18 31 22 47 4 17 25 80 48 142 58 160 46
190 -56 138 -65 -33 -78 -32 -70 3 4 15 11 35 15 44 5 9 9 25 9 34 0 10 6 25
13 33 11 13 29 71 41 126 1 6 10 25 19 43 10 17 15 32 12 32 -3 0 4 18 15 40
11 22 18 40 15 40 -3 0 1 13 10 30 8 16 14 33 13 37 0 4 4 22 11 38 7 17 14
40 16 53 1 13 7 28 14 35 6 6 11 20 11 30 0 18 5 31 40 112 8 17 13 33 12 38
-1 4 10 35 24 69 14 34 27 69 29 77 5 23 34 113 45 136 21 45 50 131 50 148 0
13 -8 17 -34 17 -22 0 -36 5 -38 14 -2 11 -16 9 -66 -11 -65 -26 -86 -26 -58
2 9 9 17 22 18 28 3 23 5 32 17 60 6 16 9 32 6 37 -3 5 1 21 9 37 8 15 20 48
26 73 7 25 17 56 22 70 6 14 12 38 14 54 2 16 8 34 14 40 5 5 10 18 10 27 0
10 5 30 12 46 6 15 10 34 9 40 -1 7 4 23 11 35 6 13 14 33 15 46 2 12 17 60
34 105 29 80 38 111 42 152 1 11 5 22 8 25 10 9 39 108 39 134 0 13 4 26 10
28 5 2 11 19 14 40 2 20 9 45 15 56 6 12 11 30 11 41 0 10 4 21 10 23 5 2 11
17 12 33 1 17 5 35 9 40 5 6 11 26 14 45 3 19 11 40 16 47 6 7 8 16 5 21 -3 5
1 20 8 34 8 14 16 41 19 59 3 19 10 52 17 74 6 22 13 53 15 68 3 15 12 54 22
85 9 31 18 64 19 72 9 46 25 118 38 160 8 27 12 51 9 53 -2 3 1 15 7 27 13 24
19 50 25 97 2 18 6 36 8 40 6 9 16 68 23 128 2 22 7 54 10 70 3 17 7 39 8 50
2 11 7 32 11 47 4 15 9 44 10 65 2 21 7 54 10 74 7 35 6 37 -25 41 -19 3 -37
-1 -45 -9z" />
		<path d="M4465 8993 c-8 -7 -17 -30 -21 -49 -4 -20 -13 -38 -20 -41 -8 -3 -14
-11 -14 -17 0 -14 -61 -167 -84 -211 -9 -16 -16 -37 -16 -45 0 -9 -5 -21 -10
-26 -6 -6 -12 -20 -15 -32 -2 -12 -10 -36 -18 -54 -36 -80 -71 -156 -89 -193
-11 -22 -21 -47 -23 -55 -2 -8 -19 -49 -38 -90 -19 -41 -40 -93 -48 -115 -7
-22 -18 -47 -25 -55 -6 -8 -14 -28 -18 -44 -4 -17 -20 -56 -36 -88 -16 -32
-30 -62 -30 -66 -1 -4 -7 -20 -15 -37 -7 -16 -25 -57 -39 -90 -15 -33 -31 -68
-36 -77 -6 -10 -10 -24 -10 -32 0 -7 -7 -19 -15 -26 -8 -7 -15 -22 -15 -34 0
-11 -13 -46 -29 -76 -15 -30 -31 -68 -35 -85 -4 -16 -12 -32 -17 -36 -5 -3
-11 -14 -13 -25 -2 -10 -11 -32 -20 -49 -9 -16 -16 -37 -16 -46 0 -9 -6 -22
-13 -28 -8 -6 -20 -30 -27 -53 -8 -24 -25 -62 -37 -85 -13 -24 -23 -44 -22
-45 1 -3 -12 -36 -38 -95 -7 -18 -18 -35 -23 -38 -6 -4 -8 -10 -5 -15 3 -5 -1
-15 -9 -23 -8 -7 -17 -28 -19 -46 -3 -18 -13 -41 -21 -50 -9 -10 -16 -24 -16
-32 0 -8 -9 -27 -20 -44 -11 -16 -20 -40 -20 -52 0 -13 -4 -23 -10 -23 -5 0
-10 -8 -10 -17 0 -10 -11 -40 -25 -68 -13 -27 -25 -56 -25 -62 0 -7 -4 -13 -9
-13 -5 0 -11 -14 -15 -32 -3 -17 -11 -38 -18 -45 -7 -8 -24 -46 -40 -84 -30
-75 -28 -95 11 -136 l22 -23 37 20 c34 19 62 26 62 16 0 -3 -13 -41 -30 -85
-16 -45 -29 -82 -29 -84 0 -1 -4 -15 -10 -30 -6 -16 -11 -34 -11 -42 0 -8 -4
-16 -9 -19 -4 -3 -18 -36 -30 -73 -12 -37 -27 -77 -32 -88 -5 -11 -11 -29 -13
-40 -2 -11 -11 -36 -19 -55 -32 -72 -67 -171 -67 -188 0 -9 -7 -26 -15 -36 -8
-10 -12 -23 -9 -28 3 -4 -4 -23 -15 -42 -12 -18 -21 -43 -21 -54 0 -11 -7 -27
-15 -35 -8 -8 -11 -17 -8 -20 5 -6 -8 -44 -42 -122 -7 -16 -18 -50 -25 -75 -7
-25 -16 -47 -21 -50 -4 -3 -11 -25 -15 -49 -6 -37 -5 -43 8 -39 8 4 19 -2 26
-12 13 -21 50 -16 59 6 3 8 9 12 13 9 4 -3 25 9 45 25 47 37 58 38 39 3 -7
-16 -14 -35 -14 -44 0 -9 -3 -19 -6 -22 -11 -11 -43 -110 -44 -134 0 -12 -4
-25 -10 -28 -5 -3 -10 -18 -10 -33 0 -15 -7 -36 -15 -46 -8 -11 -15 -28 -15
-38 0 -10 -4 -26 -9 -36 -15 -28 -61 -178 -61 -198 0 -11 -7 -28 -15 -38 -8
-11 -15 -28 -15 -39 0 -10 -5 -28 -12 -40 -6 -12 -12 -29 -13 -37 -2 -18 -38
-123 -45 -130 -3 -3 -6 -9 -6 -15 -3 -19 -36 -130 -46 -151 -5 -12 -11 -33
-11 -48 -1 -14 -5 -26 -9 -26 -4 0 -10 -16 -14 -37 -4 -20 -13 -48 -20 -62 -8
-14 -14 -36 -14 -48 0 -12 -5 -23 -10 -25 -6 -2 -12 -14 -14 -28 -1 -14 -8
-38 -14 -53 -7 -16 -10 -32 -7 -37 3 -5 -2 -15 -11 -24 -8 -9 -16 -26 -17 -38
-1 -13 -7 -29 -14 -36 -20 -20 9 -72 40 -72 7 0 24 11 37 25 13 14 27 25 31
25 11 0 3 -48 -10 -64 -7 -8 -10 -19 -7 -24 3 -5 -2 -21 -10 -36 -7 -16 -14
-32 -14 -36 0 -5 -5 -21 -11 -37 -54 -134 -148 -411 -141 -418 4 -3 1 -10 -6
-14 -7 -4 -14 -19 -16 -32 -4 -26 -9 -40 -37 -108 -11 -24 -19 -49 -19 -56 0
-7 -7 -26 -15 -41 -8 -16 -12 -36 -10 -45 3 -9 -4 -24 -15 -34 -11 -10 -20
-28 -20 -40 0 -11 -4 -25 -10 -31 -5 -5 -12 -27 -16 -49 -3 -22 -9 -44 -12
-50 -4 -5 -8 -14 -9 -20 -5 -20 -35 -110 -44 -130 -4 -11 -24 -67 -43 -125
-20 -58 -47 -136 -60 -175 -14 -38 -25 -77 -26 -85 0 -8 -12 -24 -27 -36 l-28
-22 31 -31 31 -30 28 22 c16 12 44 35 62 51 l34 29 -7 -29 c-4 -16 -13 -45
-20 -66 -7 -20 -10 -39 -6 -43 4 -3 1 -9 -6 -14 -6 -4 -13 -20 -14 -37 -1 -16
-5 -34 -9 -39 -5 -6 -11 -26 -14 -45 -3 -18 -9 -38 -13 -44 -4 -6 -8 -20 -8
-31 -2 -22 -21 -78 -36 -109 -6 -11 -12 -33 -15 -50 -3 -17 -8 -35 -13 -41 -4
-5 -10 -28 -14 -51 -3 -23 -13 -59 -22 -80 -10 -21 -19 -54 -21 -73 -2 -18
-10 -45 -17 -60 -8 -14 -17 -42 -21 -61 -7 -36 -30 -116 -46 -160 -5 -14 -10
-37 -13 -52 -2 -14 -9 -36 -16 -47 -6 -12 -8 -26 -4 -32 3 -6 -2 -19 -11 -29
-9 -10 -15 -24 -13 -32 1 -7 -2 -26 -8 -43 -27 -74 -35 -102 -38 -122 -2 -13
-8 -28 -13 -35 -5 -7 -10 -26 -11 -42 -1 -16 -6 -34 -11 -40 -4 -6 -11 -28
-15 -48 -4 -21 -12 -38 -17 -38 -6 0 -9 -6 -6 -12 2 -7 -2 -26 -8 -42 -19 -44
-9 -66 31 -66 33 0 35 2 94 122 33 67 60 127 60 133 0 5 11 23 25 39 14 16 25
37 25 48 0 10 4 18 10 18 5 0 12 15 16 34 3 19 15 42 25 52 10 9 19 22 19 29
0 16 24 65 32 65 3 0 12 16 18 35 6 19 15 35 20 35 4 0 10 13 13 29 3 16 14
37 24 47 10 9 18 20 18 23 0 16 29 71 36 71 5 0 9 7 9 15 0 14 137 292 150
305 3 3 29 55 59 115 29 61 57 117 62 125 5 8 17 31 27 50 9 19 23 41 30 48 6
7 12 18 12 24 0 15 52 122 62 126 4 2 12 20 19 40 6 20 15 39 18 42 3 3 15 23
26 44 49 96 58 111 66 114 5 2 7 8 4 12 -3 5 4 24 14 42 11 18 29 51 41 73 11
22 27 51 35 65 8 14 15 33 15 43 0 9 4 17 10 17 5 0 13 12 16 28 4 15 13 35
22 44 38 45 -35 74 -95 37 -20 -13 -33 -17 -29 -11 4 7 10 22 12 34 3 13 8 34
11 47 3 14 17 40 29 59 13 19 21 39 18 44 -3 5 -1 14 5 21 5 7 13 28 16 46 3
18 12 40 20 48 8 8 15 22 15 32 0 9 4 21 10 27 5 5 12 27 14 48 3 21 11 45 18
53 6 8 13 24 13 36 1 11 7 23 13 25 7 2 12 14 12 27 0 13 5 36 12 52 6 15 12
33 12 38 1 6 6 19 12 30 7 11 21 50 33 87 11 37 27 78 36 91 13 20 33 83 47
148 2 8 8 18 14 24 10 9 42 95 48 128 1 7 7 22 14 34 7 12 12 29 12 37 0 9 9
30 19 47 11 17 17 37 15 44 -3 6 2 18 11 25 8 7 15 24 15 39 1 14 7 37 15 51
18 32 20 83 3 77 -7 -2 -20 -1 -29 4 -9 5 -27 2 -43 -7 -16 -8 -39 -14 -51
-14 -13 0 -26 -6 -28 -12 -4 -10 -6 -10 -6 -1 -1 6 4 15 9 18 6 3 10 17 10 29
0 13 7 29 15 36 8 7 15 22 15 33 0 21 15 73 33 117 6 14 11 27 12 30 1 3 7 19
14 35 7 17 19 54 27 83 8 30 20 63 26 75 7 12 13 24 13 27 1 3 7 19 14 35 7
17 18 53 24 80 6 28 17 56 24 63 11 12 14 21 13 47 0 3 6 18 15 35 8 16 15 38
15 48 0 11 7 22 15 26 10 3 15 19 15 46 0 22 5 40 10 40 6 0 10 10 10 23 0 12
7 33 16 45 9 13 14 26 11 28 -8 8 13 64 24 64 5 0 9 15 9 33 0 18 5 38 12 45
7 7 8 12 3 12 -4 0 -1 8 7 18 8 9 18 31 22 47 4 17 25 80 48 142 58 160 46
190 -56 138 -65 -33 -78 -32 -70 3 4 15 11 35 15 44 5 9 9 25 9 34 0 10 6 25
13 33 11 13 29 71 41 126 1 6 10 25 19 43 10 17 15 32 12 32 -3 0 4 18 15 40
11 22 18 40 15 40 -3 0 1 13 10 30 8 16 14 33 13 37 0 4 4 22 11 38 7 17 14
40 16 53 1 13 7 28 14 35 6 6 11 20 11 30 0 18 5 31 40 112 8 17 13 33 12 38
-1 4 10 35 24 69 14 34 27 69 29 77 5 23 34 113 45 136 21 45 50 131 50 148 0
13 -8 17 -34 17 -22 0 -36 5 -38 14 -2 11 -16 9 -66 -11 -65 -26 -86 -26 -58
2 9 9 17 22 18 28 3 23 5 32 17 60 6 16 9 32 6 37 -3 5 1 21 9 37 8 15 20 48
26 73 7 25 17 56 22 70 6 14 12 38 14 54 2 16 8 34 14 40 5 5 10 18 10 27 0
10 5 30 12 46 6 15 10 34 9 40 -1 7 4 23 11 35 6 13 14 33 15 46 2 12 17 60
34 105 29 80 38 111 42 152 1 11 5 22 8 25 10 9 39 108 39 134 0 13 4 26 10
28 5 2 11 19 14 40 2 20 9 45 15 56 6 12 11 30 11 41 0 10 4 21 10 23 5 2 11
17 12 33 1 17 5 35 9 40 5 6 11 26 14 45 3 19 11 40 16 47 6 7 8 16 5 21 -3 5
1 20 8 34 8 14 16 41 19 59 3 19 10 52 17 74 6 22 13 53 15 68 3 15 12 54 22
85 9 31 18 64 19 72 9 46 25 118 38 160 8 27 12 51 9 53 -2 3 1 15 7 27 13 24
19 50 25 97 2 18 6 36 8 40 6 9 16 68 23 128 2 22 7 54 10 70 3 17 7 39 8 50
2 11 7 32 11 47 4 15 9 44 10 65 2 21 7 54 10 74 7 35 6 37 -25 41 -19 3 -37
-1 -45 -9z" />
	</g>
</svg>