<?xml version="1.0" standalone="no"?>
<!DOCTYPE svg PUBLIC "-//W3C//DTD SVG 20010904//EN"
 "http://www.w3.org/TR/2001/REC-SVG-20010904/DTD/svg10.dtd">
<svg version="1.0" xmlns="http://www.w3.org/2000/svg"
 width="689.000000pt" height="926.000000pt" viewBox="0 0 689.000000 926.000000"
 preserveAspectRatio="xMidYMid meet">

<g transform="translate(0.000000,926.000000) scale(0.100000,-0.100000)"
fill="#000000" stroke="none">
<path d="M1820 8335 c-883 -503 -1611 -917 -1619 -922 -10 -7 -6 -21 23 -70
l36 -61 0 -3491 0 -3491 -130 0 -130 0 0 -150 0 -150 3440 0 3440 0 0 150 0
150 -110 0 -110 0 0 3523 0 3523 30 56 31 56 -53 30 c-133 75 -3220 1753
-3231 1756 -6 3 -734 -407 -1617 -909z m3076 -219 l1459 -795 3 -3510 2 -3511
-2900 0 -2900 0 0 3488 0 3488 1433 816 c787 449 1435 816 1438 817 3 1 663
-356 1465 -793z"/>
</g>
</svg>
