<?xml version="1.0" standalone="no"?>
<!DOCTYPE svg PUBLIC "-//W3C//DTD SVG 20010904//EN" "http://www.w3.org/TR/2001/REC-SVG-20010904/DTD/svg10.dtd">
<svg version="1.0" xmlns="http://www.w3.org/2000/svg" width="771.000000pt" height="1025.000000pt"
	viewBox="0 0 771.000000 1025.000000" preserveAspectRatio="xMidYMid meet">

	<g transform="translate(0.000000,1025.000000) scale(0.100000,-0.100000)" fill="#000000" stroke="none">
		<path d="M3769 10203 c-24 -14 -96 -53 -159 -88 -63 -34 -241 -131 -395 -215
-154 -84 -332 -181 -395 -215 -162 -88 -436 -237 -560 -305 -58 -31 -186 -101
-285 -155 -286 -156 -388 -211 -502 -274 -121 -66 -395 -215 -553 -301 -239
-130 -472 -257 -585 -318 -66 -35 -125 -69 -132 -74 -9 -7 -3 -25 23 -72 l34
-63 0 -3891 0 -3892 -120 0 -120 0 0 -170 0 -170 3835 0 3835 0 0 170 0 170
-120 0 -120 0 0 3892 0 3891 34 63 c26 47 32 65 23 72 -7 5 -66 39 -132 74
-113 61 -346 188 -585 318 -158 86 -432 235 -552 301 -115 63 -217 118 -503
274 -99 54 -227 124 -285 155 -124 68 -398 217 -560 305 -63 34 -241 131 -395
215 -154 84 -329 179 -389 212 -60 32 -129 71 -154 85 -62 37 -126 39 -183 6z
m326 -463 c105 -57 237 -129 295 -160 58 -32 182 -99 275 -150 223 -122 342
-186 560 -305 284 -155 387 -211 503 -274 138 -75 421 -229 847 -461 105 -57
242 -132 305 -167 63 -35 143 -78 178 -95 l62 -32 0 -3878 0 -3878 -3265 0
-3265 0 0 3878 0 3878 63 32 c34 17 114 60 177 95 63 35 201 110 305 167 426
232 709 386 848 461 115 63 218 119 502 274 203 111 316 172 560 305 94 51
222 121 285 155 63 35 198 108 299 163 239 129 214 129 466 -8z" />
		<path d="M3836 8902 c-3 -5 -40 -30 -83 -55 -43 -26 -84 -51 -92 -56 -12 -8
-10 -16 12 -50 15 -22 27 -44 27 -49 0 -13 -346 -367 -458 -468 -607 -549
-1256 -861 -1992 -959 -106 -14 -357 -35 -422 -35 l-28 0 0 -3325 0 -3325
3055 0 3055 0 0 3325 0 3325 -27 0 c-66 0 -317 21 -423 35 -736 98 -1385 410
-1992 959 -112 101 -458 455 -458 468 0 5 12 27 27 49 22 34 24 42 12 50 -8 5
-49 30 -92 56 -43 25 -80 50 -83 55 -3 4 -11 8 -19 8 -8 0 -16 -4 -19 -8z
m209 -730 c416 -412 764 -668 1200 -881 362 -178 740 -292 1175 -354 l155 -22
3 -3003 2 -3002 -2725 0 -2725 0 2 3002 3 3003 155 22 c435 62 813 176 1175
354 438 215 796 478 1195 880 102 102 187 187 190 187 3 1 91 -83 195 -186z" />
	</g>
</svg>