<?xml version="1.0" standalone="no"?>
<!DOCTYPE svg PUBLIC "-//W3C//DTD SVG 20010904//EN" "http://www.w3.org/TR/2001/REC-SVG-20010904/DTD/svg10.dtd">
<svg version="1.0" xmlns="http://www.w3.org/2000/svg" width="886.000000pt" height="770.000000pt"
	viewBox="0 0 886.000000 770.000000" preserveAspectRatio="xMidYMid meet">

	<g transform="translate(0.000000,770.000000) scale(0.100000,-0.100000)" fill="#000000" stroke="none">
		<path d="M4380 7673 c-16 -3 -132 -111 -328 -306 -167 -166 -308 -311 -314
-321 -18 -33 -12 -112 10 -148 12 -18 77 -89 147 -158 69 -69 125 -131 125
-138 0 -7 -16 -48 -36 -90 -20 -42 -56 -124 -80 -182 -25 -57 -51 -114 -59
-126 -8 -12 -48 -101 -89 -198 -42 -96 -89 -199 -105 -228 -17 -29 -37 -71
-44 -93 -18 -49 -232 -526 -292 -650 -24 -49 -73 -155 -108 -235 -67 -149
-244 -542 -322 -710 -105 -230 -205 -450 -228 -505 -52 -122 -82 -190 -93
-209 -14 -23 62 -60 -1946 957 -278 141 -439 217 -458 217 -72 0 -143 -58
-156 -126 -9 -49 9 -104 46 -139 17 -16 184 -106 373 -201 188 -94 547 -275
797 -402 250 -127 642 -324 871 -440 228 -115 428 -217 443 -227 15 -10 51
-20 79 -22 68 -5 113 19 150 82 28 48 121 251 191 416 19 47 61 139 92 205 31
65 69 148 84 184 15 36 92 205 170 375 78 171 171 375 206 455 36 80 82 181
104 225 49 100 269 589 283 630 6 17 25 57 43 90 18 33 60 125 94 205 34 80
77 174 95 210 18 36 50 106 70 155 21 50 44 103 52 119 l15 28 41 -40 c23 -23
54 -45 68 -51 55 -20 136 5 196 61 l31 30 15 -28 c8 -16 31 -69 52 -119 20
-49 52 -119 70 -155 18 -36 61 -130 95 -210 34 -80 76 -172 94 -205 18 -33 37
-73 43 -90 14 -41 234 -530 283 -630 22 -44 68 -145 104 -225 35 -80 128 -284
206 -455 78 -170 155 -339 170 -375 15 -36 53 -119 84 -184 31 -66 73 -158 92
-205 70 -165 163 -368 191 -416 37 -63 82 -87 150 -82 28 2 64 12 79 22 15 10
215 112 443 227 229 116 621 313 871 440 250 127 609 308 797 402 189 95 356
185 373 201 37 35 55 90 46 139 -13 68 -84 126 -156 126 -19 0 -180 -76 -458
-217 -2008 -1017 -1932 -980 -1946 -957 -11 19 -41 87 -93 209 -23 55 -123
275 -228 505 -78 168 -255 561 -322 710 -35 80 -84 186 -108 235 -60 124 -274
601 -292 650 -7 22 -27 64 -44 93 -16 29 -63 132 -105 228 -41 97 -81 186 -89
198 -8 12 -34 69 -59 126 -24 58 -60 140 -80 182 -20 42 -36 83 -36 90 0 7 57
69 126 138 165 164 186 207 149 298 -22 51 -565 597 -620 623 -39 18 -65 21
-115 12z m216 -862 l-164 -164 -29 24 c-15 13 -91 88 -168 167 l-140 142 165
165 165 165 167 -167 168 -168 -164 -164z" />
		<path d="M4366 6220 c-41 -13 -83 -56 -110 -115 -13 -27 -42 -88 -64 -135 -71
-149 -203 -443 -230 -510 -14 -36 -31 -74 -38 -85 -19 -30 -199 -424 -256
-560 -28 -66 -73 -165 -100 -220 -28 -54 -94 -198 -148 -320 -54 -121 -179
-400 -278 -620 -99 -220 -203 -452 -231 -515 -28 -63 -59 -128 -68 -145 -8
-16 -31 -66 -49 -110 -18 -44 -37 -79 -42 -78 -9 2 -222 106 -667 324 -132 65
-323 158 -425 208 -204 98 -710 347 -1061 520 -241 118 -267 126 -329 92 -50
-26 -71 -61 -85 -136 -17 -89 -7 -125 115 -400 34 -77 75 -171 90 -210 15 -38
59 -145 99 -237 39 -92 71 -170 71 -173 0 -3 25 -59 55 -125 30 -65 65 -147
78 -181 26 -69 89 -217 167 -394 27 -60 67 -157 91 -215 23 -58 52 -125 64
-150 21 -41 93 -213 181 -430 19 -47 43 -103 54 -125 19 -40 154 -358 216
-510 18 -44 57 -141 88 -215 31 -74 56 -135 56 -137 0 -1 -246 -4 -547 -5
l-548 -3 -33 -23 c-42 -30 -64 -74 -64 -127 0 -53 22 -97 64 -127 l33 -23
3010 -2 c1656 -2 3420 1 3920 5 l910 7 33 23 c42 30 64 74 64 127 0 53 -22 97
-64 127 l-33 23 -542 3 c-299 1 -543 4 -543 6 0 11 314 765 350 841 11 22 35
78 54 125 88 217 160 389 181 430 12 25 41 92 64 150 24 58 64 155 91 215 78
177 141 325 167 394 13 34 48 116 78 181 30 66 55 122 55 125 0 3 32 81 71
173 40 92 84 199 99 237 15 39 56 133 90 210 122 275 132 311 115 400 -14 75
-35 110 -85 136 -62 34 -88 26 -329 -92 -351 -173 -857 -422 -1061 -520 -102
-50 -293 -143 -425 -208 -445 -218 -658 -322 -667 -324 -5 -1 -24 34 -42 78
-18 44 -41 94 -49 110 -9 17 -40 82 -68 145 -28 63 -132 295 -231 515 -99 220
-224 499 -278 620 -54 122 -120 266 -148 320 -27 55 -72 154 -100 220 -57 136
-237 530 -256 560 -7 11 -24 49 -38 85 -27 67 -159 361 -230 510 -22 47 -51
108 -64 135 -33 72 -72 105 -141 121 -66 15 -67 16 -107 4z m131 -607 c24 -51
43 -95 43 -98 0 -2 18 -43 40 -90 22 -47 40 -88 40 -91 0 -3 30 -67 66 -142
81 -168 191 -411 240 -529 20 -48 59 -133 86 -188 45 -88 109 -231 309 -680
31 -71 114 -256 184 -410 70 -154 154 -341 187 -415 32 -74 65 -144 72 -155 7
-11 20 -42 31 -70 33 -92 104 -223 131 -244 29 -22 70 -36 148 -47 47 -6 54
-3 250 94 110 55 336 166 501 246 165 81 372 182 460 225 249 123 748 368 870
426 60 30 111 52 113 50 2 -1 -11 -34 -29 -71 -17 -38 -37 -87 -44 -109 -8
-22 -47 -118 -89 -213 -41 -95 -78 -183 -82 -195 -3 -12 -32 -78 -64 -147 -31
-69 -61 -136 -65 -150 -4 -14 -29 -75 -56 -136 -27 -62 -49 -115 -49 -118 0
-3 -23 -57 -51 -119 -28 -61 -62 -139 -74 -172 -26 -65 -69 -167 -135 -315
-44 -100 -119 -280 -152 -365 -10 -27 -28 -68 -38 -90 -21 -41 -98 -223 -200
-470 -32 -77 -82 -194 -110 -260 -29 -66 -64 -148 -78 -183 l-26 -62 -2489 2
-2490 3 -27 65 c-15 36 -51 119 -80 185 -28 66 -78 183 -110 260 -102 247
-179 429 -200 470 -10 22 -28 63 -38 90 -33 85 -108 265 -152 365 -66 148
-109 250 -135 315 -12 33 -46 111 -74 172 -28 62 -51 116 -51 119 0 3 -22 56
-49 118 -27 61 -52 122 -56 136 -4 14 -34 81 -65 150 -32 69 -61 135 -64 147
-4 12 -41 100 -82 195 -42 95 -81 191 -89 213 -7 22 -27 71 -44 109 -18 37
-31 70 -29 71 2 2 53 -20 113 -50 122 -58 621 -303 870 -426 88 -43 295 -144
460 -225 165 -80 391 -191 501 -246 196 -97 203 -100 250 -94 78 11 119 25
148 47 27 21 98 152 131 244 11 28 24 59 31 70 7 11 40 81 72 155 33 74 117
261 187 415 70 154 153 339 184 410 200 449 264 592 309 680 27 55 66 140 86
188 49 118 159 361 240 529 36 75 66 139 66 142 0 3 18 44 40 91 22 47 40 88
40 90 0 3 20 47 44 98 23 50 46 101 51 112 7 19 8 19 18 -5 6 -14 30 -67 54
-117z" />
		<path d="M4405 4352 c-23 -4 -297 -271 -325 -316 -18 -28 -18 -30 0 -65 25
-49 288 -308 321 -316 42 -10 73 13 227 167 190 193 190 171 -4 369 -142 144
-177 169 -219 161z m175 -347 c0 -6 -36 -46 -80 -90 l-80 -80 -82 83 -83 82
85 85 85 85 77 -77 c43 -43 78 -82 78 -88z" />
		<path d="M4355 3396 c-16 -8 -126 -110 -242 -228 -229 -230 -230 -232 -202
-305 11 -30 348 -376 413 -424 43 -32 83 -37 124 -15 42 22 430 417 442 450
21 58 0 88 -214 305 -182 184 -240 232 -278 231 -7 -1 -26 -7 -43 -14z m165
-371 l115 -115 -115 -115 c-63 -63 -119 -115 -125 -115 -12 0 -225 213 -225
226 0 9 221 234 230 234 3 0 57 -52 120 -115z" />
		<path d="M4320 2193 c-16 -3 -132 -111 -328 -306 -167 -166 -308 -311 -314
-321 -14 -26 -13 -108 2 -137 20 -39 592 -610 626 -625 36 -15 92 -10 137 12
44 22 584 561 608 606 23 45 24 86 4 136 -22 51 -565 597 -620 623 -39 18 -65
21 -115 12z m216 -862 l-164 -164 -29 24 c-15 13 -91 88 -168 167 l-140 142
165 165 165 165 167 -167 168 -168 -164 -164z" />
	</g>
</svg>