<?xml version="1.0" standalone="no"?>
<!DOCTYPE svg PUBLIC "-//W3C//DTD SVG 20010904//EN" "http://www.w3.org/TR/2001/REC-SVG-20010904/DTD/svg10.dtd">
<svg version="1.0" xmlns="http://www.w3.org/2000/svg" width="1019.000000pt" height="556.000000pt"
	viewBox="0 0 1019.000000 556.000000" preserveAspectRatio="xMidYMid meet">

	<g transform="translate(0.000000,556.000000) scale(0.100000,-0.100000)" fill="#000000" stroke="none">
		<path d="M5119 5551 c-2 -6 -26 -11 -54 -12 l-50 -1 -2493 -2492 c-1810 -1809
-2495 -2499 -2500 -2521 l-8 -30 253 -3 253 -2 0 -225 c0 -124 3 -225 8 -225
4 0 102 94 217 210 115 115 215 210 222 210 7 0 13 6 13 13 0 16 761 777 778
777 6 0 12 6 12 13 0 16 1171 1187 1188 1187 6 0 12 6 12 13 0 16 881 897 898
897 6 0 12 6 12 13 0 16 1181 1197 1198 1197 6 0 11 3 9 8 -6 18 19 12 28 -7
5 -11 14 -21 20 -21 15 0 1185 -1173 1185 -1188 0 -6 6 -12 12 -12 17 0 898
-881 898 -897 0 -7 6 -13 13 -13 15 0 1182 -1169 1190 -1192 4 -10 12 -18 19
-18 16 0 763 -748 771 -773 4 -9 12 -17 19 -17 7 0 108 -94 223 -210 115 -116
215 -210 222 -210 10 0 13 53 13 235 l0 235 245 0 c157 0 245 4 245 10 0 6 -4
10 -8 10 -4 0 -13 15 -20 33 -7 19 -78 98 -182 202 -93 94 -170 176 -170 182
0 7 -6 13 -13 13 -16 0 -427 411 -427 428 0 6 -6 12 -12 12 -17 0 -398 382
-398 398 0 6 -6 12 -13 12 -16 0 -337 321 -337 338 0 6 -6 12 -12 12 -17 0
-838 821 -838 837 0 7 -6 13 -13 13 -16 0 -837 821 -837 838 0 6 -6 12 -12 12
-17 0 -988 971 -988 988 0 6 -6 12 -13 12 -16 0 -337 322 -337 338 0 7 -6 12
-12 12 -7 0 -87 74 -178 165 -114 114 -175 169 -200 176 -19 7 -38 16 -41 22
-4 6 -8 5 -10 -2z" />
	</g>
</svg>