<?xml version="1.0" standalone="no"?>
<!DOCTYPE svg PUBLIC "-//W3C//DTD SVG 20010904//EN"
 "http://www.w3.org/TR/2001/REC-SVG-20010904/DTD/svg10.dtd">
<svg version="1.0" xmlns="http://www.w3.org/2000/svg"
 width="689.000000pt" height="926.000000pt" viewBox="0 0 689.000000 926.000000"
 preserveAspectRatio="xMidYMid meet">

<g transform="translate(0.000000,926.000000) scale(0.100000,-0.100000)"
fill="#000000" stroke="none">
<path d="M0 9110 l0 -150 130 0 130 0 0 -3487 0 -3486 -36 -65 c-20 -35 -32
-68 -28 -72 5 -4 735 -421 1623 -925 1584 -900 1614 -917 1640 -903 14 9 748
408 1631 888 883 480 1611 878 1618 885 10 9 6 22 -18 66 l-30 54 0 3523 0
3522 110 0 110 0 0 150 0 150 -3440 0 -3440 0 0 -150z m6360 -3658 l0 -3508
-1453 -792 c-799 -435 -1458 -792 -1465 -794 -6 -2 -657 364 -1447 812 l-1435
815 0 3488 0 3487 2900 0 2900 0 0 -3508z"/>
</g>
</svg>
