<?xml version="1.0" standalone="no"?>
<!DOCTYPE svg PUBLIC "-//W3C//DTD SVG 20010904//EN" "http://www.w3.org/TR/2001/REC-SVG-20010904/DTD/svg10.dtd">
<svg version="1.0" xmlns="http://www.w3.org/2000/svg" width="771.000000pt" height="1025.000000pt"
	viewBox="0 0 771.000000 1025.000000" preserveAspectRatio="xMidYMid meet">

	<g transform="translate(0.000000,1025.000000) scale(0.100000,-0.100000)" fill="#000000" stroke="none">
		<path d="M30 10090 l0 -160 150 0 150 0 0 -3856 0 -3857 -40 -72 -40 -73 92
-52 c51 -29 122 -70 158 -90 36 -21 198 -113 360 -205 162 -92 324 -184 360
-205 36 -21 164 -94 285 -163 121 -68 351 -199 510 -289 160 -91 427 -243 595
-338 168 -95 451 -256 630 -358 179 -102 387 -220 463 -263 l138 -79 52 29
c29 16 133 72 232 126 99 54 227 124 285 155 58 32 184 100 280 153 535 290
877 476 970 527 58 32 310 169 560 305 250 136 502 273 560 305 58 32 175 96
260 142 384 210 440 241 440 245 0 3 -16 33 -35 67 l-35 63 0 3891 0 3892 125
0 125 0 0 160 0 160 -3815 0 -3815 0 0 -160z m7045 -4040 l0 -3874 -190 -104
c-104 -57 -246 -135 -315 -172 -69 -38 -222 -121 -340 -186 -118 -64 -262
-143 -320 -174 -58 -31 -186 -101 -285 -155 -99 -54 -227 -123 -285 -155 -58
-31 -289 -157 -515 -280 -790 -430 -975 -530 -981 -530 -3 0 -56 29 -117 64
-126 71 -378 215 -927 526 -206 117 -490 278 -630 358 -140 79 -322 183 -405
230 -226 128 -1004 571 -1052 598 l-43 25 0 3854 0 3855 3203 -2 3202 -3 0
-3875z" />
		<path d="M3563 9549 c-79 -37 -143 -71 -143 -75 0 -4 32 -72 70 -152 l70 -145
-51 -116 c-103 -232 -238 -429 -405 -591 -385 -372 -930 -546 -1919 -615 -121
-8 -248 -18 -282 -21 l-63 -6 6 -111 c3 -62 -1 -1001 -10 -2087 -9 -1086 -16
-2111 -16 -2278 0 -287 1 -303 20 -319 16 -14 407 -247 1265 -755 344 -203
572 -338 680 -403 66 -39 210 -125 320 -190 110 -65 281 -166 380 -225 466
-278 416 -252 439 -231 12 11 120 80 241 154 121 74 258 158 305 187 47 29
193 119 325 200 132 81 287 177 345 212 152 94 937 575 1352 829 196 121 362
219 369 219 9 0 11 499 5 2288 -3 1258 -9 2344 -12 2413 l-7 127 -216 6 c-303
10 -577 34 -806 72 -299 49 -641 161 -885 291 -236 125 -420 264 -610 459
-131 135 -216 240 -311 384 -102 155 -97 125 -50 295 23 81 40 149 39 150 -2
2 -61 20 -133 40 -71 20 -137 43 -146 51 -8 8 -17 14 -20 13 -2 0 -68 -32
-146 -70z m322 -864 c102 -128 292 -324 420 -432 487 -410 1122 -645 1900
-702 77 -6 179 -13 227 -17 l88 -6 2 -711 c2 -392 3 -1359 3 -2151 l0 -1438
-505 -310 c-278 -170 -543 -333 -590 -362 -47 -29 -224 -138 -395 -243 -170
-105 -436 -268 -590 -363 -154 -95 -311 -192 -350 -215 -38 -23 -100 -61 -137
-84 l-67 -41 -98 59 c-54 32 -222 131 -373 221 -151 89 -306 182 -345 205 -81
48 -334 199 -685 407 -135 80 -366 217 -515 305 -148 88 -370 219 -492 292
l-223 132 0 287 c0 416 19 2975 26 3528 l6 471 87 7 c662 50 1132 150 1483
314 433 203 748 500 974 920 38 72 39 73 54 51 8 -13 51 -68 95 -124z" />
	</g>
</svg>