<?xml version="1.0" standalone="no"?>
<!DOCTYPE svg PUBLIC "-//W3C//DTD SVG 20010904//EN" "http://www.w3.org/TR/2001/REC-SVG-20010904/DTD/svg10.dtd">
<svg version="1.0" xmlns="http://www.w3.org/2000/svg" width="612.000000pt" height="865.000000pt"
	viewBox="0 0 612.000000 865.000000" preserveAspectRatio="xMidYMid meet">

	<g transform="translate(0.000000,865.000000) scale(0.100000,-0.100000)" fill="#000000" stroke="none">
		<path d="M452 8613 c-24 -9 -34 -57 -33 -153 2 -101 3 -113 19 -260 18 -157
56 -316 87 -364 9 -14 20 -49 25 -78 4 -29 18 -100 30 -158 26 -125 33 -308
17 -487 -9 -111 -9 -125 7 -141 9 -11 27 -53 40 -93 23 -71 65 -173 88 -214 6
-11 16 -29 22 -40 29 -54 58 -82 82 -79 32 3 50 -24 64 -96 6 -30 16 -74 22
-97 8 -31 7 -73 -1 -154 -7 -62 -8 -115 -4 -118 5 -3 20 -22 33 -41 50 -74
118 -127 157 -121 6 1 14 -3 18 -9 8 -13 51 -13 76 0 12 7 25 7 36 1 34 -17
309 -35 338 -21 6 2 21 6 35 7 36 3 114 23 122 31 4 4 -2 18 -13 31 -18 21
-22 23 -47 12 -41 -19 -106 -25 -242 -23 -298 6 -441 93 -441 271 0 36 0 83 0
103 0 21 -4 49 -9 63 -10 27 16 155 31 155 5 0 9 7 9 15 0 9 13 41 30 71 16
31 27 60 24 65 -3 5 0 9 6 9 6 0 15 10 21 23 5 12 21 40 34 62 14 22 29 50 34
62 5 11 14 24 20 27 17 11 -7 55 -31 56 -10 0 -100 -154 -158 -270 -28 -58
-55 -109 -60 -114 -5 -5 -14 1 -21 16 -13 30 -54 62 -89 71 -30 8 -82 105
-131 247 -32 95 -33 96 -35 315 -2 121 -4 220 -4 220 -1 0 -3 32 -5 70 -1 39
-13 113 -25 165 -12 52 -25 115 -27 140 -3 25 -15 59 -28 75 -12 17 -24 44
-27 60 -3 17 -13 64 -23 105 -21 93 -23 107 -30 200 -4 41 -10 91 -14 110 -6
29 -7 107 -2 156 1 8 13 9 39 4 38 -8 133 -41 142 -50 3 -3 30 -18 60 -34 141
-73 270 -202 270 -269 0 -16 44 -49 54 -40 14 14 4 65 -21 112 -54 96 -162
191 -297 260 -80 41 -106 51 -183 71 -35 9 -42 15 -45 38 -3 26 -20 36 -46 25z" />
		<path d="M2695 8539 c-44 -10 -93 -24 -110 -32 -16 -8 -46 -21 -65 -28 -100
-37 -273 -165 -387 -286 -45 -48 -50 -58 -40 -74 16 -26 45 -15 82 30 49 58
118 120 153 138 19 9 39 27 44 39 6 13 15 21 19 18 5 -3 9 -1 9 4 0 6 41 27
90 48 50 21 90 42 90 46 0 4 10 8 22 8 23 0 71 14 130 38 27 11 56 13 105 8
37 -3 69 -6 71 -6 2 0 1 -9 -3 -20 -3 -11 1 -30 11 -45 13 -20 15 -38 10 -88
-12 -104 -52 -255 -91 -335 -12 -26 -26 -58 -30 -72 -4 -14 -12 -31 -17 -37
-6 -7 -12 -29 -15 -49 -5 -34 -4 -35 24 -32 19 2 27 8 25 19 -1 9 4 19 13 23
8 3 15 15 15 26 0 11 5 20 10 20 6 0 10 7 10 15 0 8 9 34 19 58 11 23 23 58
26 77 4 19 11 40 16 46 5 7 16 40 23 75 8 35 18 75 23 89 17 44 9 177 -11 199
-16 18 -16 20 -1 29 26 14 14 44 -20 54 -56 16 -169 15 -250 -3z" />
		<path d="M553 8453 c-26 -9 -17 -76 32 -238 15 -49 34 -115 42 -145 20 -80 33
-108 51 -115 43 -16 37 41 -27 241 -21 65 -42 134 -46 152 -7 32 -6 33 22 26
48 -10 116 -102 190 -256 34 -70 41 -78 66 -78 25 0 27 3 22 23 -10 33 -63
136 -96 185 -16 24 -29 45 -29 48 0 17 -69 97 -103 120 -33 21 -44 24 -63 15
-19 -8 -26 -7 -36 8 -7 10 -19 16 -25 14z" />
		<path d="M2587 8275 c-25 -19 -50 -35 -54 -35 -5 0 -59 -52 -121 -115 -110
-112 -123 -135 -85 -150 18 -6 63 31 63 52 0 7 4 13 10 13 5 0 42 32 81 70 39
39 76 70 82 70 7 0 35 22 64 48 42 38 50 50 42 65 -14 25 -30 21 -82 -18z" />
		<path d="M2732 8258 c-5 -7 -12 -56 -15 -108 -6 -107 -34 -247 -73 -361 -26
-76 -28 -109 -9 -116 19 -6 46 21 49 49 1 15 7 33 13 40 6 7 13 29 16 48 4 19
14 60 23 90 18 60 19 66 34 216 13 124 -3 184 -38 142z" />
		<path d="M1547 8244 c-1 -1 -81 -4 -177 -8 -159 -6 -198 -10 -267 -31 -25 -8
-30 -27 -10 -43 12 -10 79 -8 127 4 34 8 143 13 340 16 143 3 165 5 168 19 6
34 -24 48 -104 46 -41 -1 -76 -2 -77 -3z" />
		<path d="M1868 8143 c-8 -30 1 -40 55 -67 29 -14 75 -43 104 -65 44 -34 54
-38 69 -27 9 7 15 20 12 27 -7 19 -199 149 -220 149 -9 0 -18 -8 -20 -17z" />
		<path d="M1676 7818 c-8 -13 -20 -45 -26 -73 -7 -27 -23 -83 -36 -122 -34
-102 -47 -217 -40 -371 3 -73 7 -136 10 -140 2 -4 7 -25 10 -47 10 -64 27
-107 59 -152 33 -46 116 -103 144 -98 10 2 26 4 36 4 9 1 25 11 35 23 37 46
63 66 97 71 37 6 124 64 125 84 0 6 14 25 30 41 17 17 30 35 30 41 0 6 4 11 9
11 16 0 64 104 63 138 -1 17 3 32 9 32 6 0 9 22 6 58 -3 32 -1 78 3 102 6 35
4 52 -11 82 -22 42 -86 88 -123 88 -14 0 -27 7 -31 18 -3 9 -37 44 -75 77 -99
87 -187 123 -230 95 -19 -12 -2 -43 26 -45 30 -3 64 -16 64 -24 0 -5 -19 -13
-42 -19 -35 -9 -50 -8 -81 6 -30 13 -37 21 -33 37 3 11 6 25 6 31 0 7 9 14 21
17 15 4 20 12 17 29 -4 33 -51 37 -72 6z m36 -180 c-7 -7 -12 -8 -12 -2 0 14
12 26 19 19 2 -3 -1 -11 -7 -17z m470 -180 c5 -47 -3 -64 -26 -55 -21 8 -33
77 -15 88 27 17 37 9 41 -33z m-126 -290 c-19 -26 -20 -20 -5 19 6 15 13 22
16 16 2 -7 -3 -23 -11 -35z" />
		<path d="M1023 7781 c-25 -28 -27 -28 -59 -15 -61 25 -87 19 -122 -30 -62 -89
-95 -246 -90 -430 3 -108 5 -125 26 -150 15 -19 22 -42 22 -70 0 -97 33 -146
119 -177 55 -19 109 -13 140 15 10 9 20 14 23 11 3 -3 11 1 18 10 7 8 18 15
25 15 7 0 18 7 25 15 6 8 15 14 18 13 4 -1 23 14 43 35 21 20 35 37 33 37 -3
0 7 21 21 47 14 27 25 53 25 59 0 6 6 17 14 23 8 7 17 30 21 52 4 21 11 39 16
39 5 0 7 40 5 89 -4 90 -13 117 -60 180 -14 19 -26 45 -26 56 0 12 -11 37 -25
56 -13 19 -32 49 -42 66 -20 39 -83 83 -119 83 -16 0 -35 -11 -51 -29z m98
-52 l24 -21 -25 6 c-14 3 -33 6 -44 6 -15 0 -16 3 -6 15 16 20 23 19 51 -6z
m-167 -40 c-8 -13 -24 -1 -24 18 0 13 3 13 15 3 8 -7 12 -16 9 -21z m-127
-277 c8 -5 8 -23 -1 -72 -11 -61 -12 -63 -19 -32 -4 19 -3 41 2 50 5 9 5 26 0
39 -9 23 -3 28 18 15z" />
		<path d="M2735 7653 c-4 -21 -19 -72 -35 -113 -16 -41 -31 -86 -35 -100 -16
-64 -137 -334 -160 -357 -8 -7 -16 -22 -20 -32 -3 -11 -16 -21 -28 -23 -20 -3
-69 -75 -105 -153 -6 -12 -17 -27 -26 -34 -9 -7 -16 -19 -16 -26 0 -8 -3 -15
-7 -17 -5 -1 -26 -25 -47 -53 -52 -66 -144 -155 -159 -155 -7 0 -18 5 -24 11
-17 17 -43 3 -43 -24 0 -28 28 -57 55 -57 17 0 17 -1 0 -20 -13 -14 -16 -28
-11 -53 4 -24 2 -38 -8 -46 -13 -11 -15 -4 -18 51 -3 57 -5 63 -25 66 -17 3
-26 -4 -34 -25 -5 -15 -21 -39 -34 -53 -23 -25 -71 -124 -79 -164 -3 -11 -8
-35 -11 -52 -6 -27 -4 -33 14 -39 12 -3 21 -10 21 -14 0 -18 -62 -98 -85 -111
-30 -16 -41 -46 -25 -65 10 -13 16 -12 42 1 16 8 32 22 35 30 3 7 11 14 19 14
7 0 16 11 20 25 3 14 13 25 20 25 8 0 20 -11 26 -25 6 -14 15 -25 20 -25 4 0
8 -7 8 -15 0 -8 16 -47 36 -86 l36 -71 -30 -76 c-17 -42 -34 -90 -38 -107 -13
-53 -85 -198 -122 -245 -81 -102 -145 -154 -257 -209 -190 -92 -413 -114 -575
-56 -134 47 -145 54 -193 118 -63 86 -174 188 -227 208 -52 21 -163 39 -208
33 -60 -7 -163 -43 -179 -62 -10 -12 -8 -23 9 -56 11 -22 27 -49 36 -59 8 -9
13 -19 11 -21 -2 -3 -29 -7 -59 -10 -105 -10 -149 -32 -184 -92 -36 -60 5 -89
46 -33 29 39 77 59 153 65 64 4 91 8 115 16 8 3 33 11 55 17 58 16 82 37 68
59 -6 9 -19 16 -29 14 -79 -11 -100 -9 -122 8 -28 23 -44 87 -19 77 9 -3 31
-1 49 4 42 13 157 19 163 9 2 -4 30 -15 62 -25 49 -15 70 -30 136 -98 43 -44
90 -98 105 -119 16 -26 42 -47 71 -60 25 -11 60 -27 78 -34 17 -8 40 -14 50
-14 10 0 24 -5 30 -11 21 -21 337 -33 352 -13 6 9 16 11 77 18 17 1 48 12 70
23 91 47 127 63 140 63 8 0 14 7 14 15 0 8 9 15 19 15 32 0 51 11 51 30 0 11
10 22 23 25 12 4 38 24 58 44 44 46 129 169 129 188 0 8 7 21 15 29 8 9 15 25
15 37 0 12 7 31 15 41 8 11 15 27 15 35 0 27 43 122 54 118 15 -5 20 -55 8
-70 -5 -7 -10 -70 -10 -142 0 -203 -16 -317 -73 -541 -29 -113 -146 -175 -409
-219 -107 -18 -285 -11 -400 14 -144 33 -170 40 -236 72 -34 16 -66 29 -72 29
-5 0 -21 12 -36 27 -23 22 -30 25 -44 15 -50 -36 -159 -49 -185 -23 -15 15
-57 14 -57 -1 1 -38 40 -58 123 -64 59 -4 77 -2 90 10 21 22 21 21 110 -24 76
-39 200 -80 243 -80 12 0 24 -4 26 -9 2 -5 23 -11 48 -12 35 -3 46 -9 51 -24
3 -13 13 -20 27 -19 12 0 22 -3 22 -8 0 -4 17 -8 37 -8 21 0 73 -12 116 -27
73 -26 77 -29 72 -53 -4 -18 2 -33 20 -53 28 -30 101 -71 114 -63 4 3 18 -1
32 -7 13 -7 51 -19 84 -27 33 -7 63 -15 67 -17 3 -1 -5 -33 -18 -70 -14 -38
-29 -90 -34 -118 -4 -27 -13 -68 -20 -90 -26 -95 -24 -374 4 -504 19 -89 75
-208 119 -258 42 -47 56 -98 57 -219 1 -33 7 -73 15 -87 16 -31 22 -58 35
-157 6 -41 13 -89 15 -107 16 -106 24 -232 20 -323 -4 -125 8 -349 32 -553 13
-117 14 -152 5 -168 -7 -10 -12 -29 -12 -41 0 -19 40 -188 80 -338 5 -19 10
-50 10 -69 0 -31 94 -378 125 -460 7 -20 21 -70 31 -111 9 -41 26 -106 36
-145 31 -112 31 -115 19 -115 -51 0 -229 -136 -245 -187 -3 -10 -18 -26 -33
-36 -16 -9 -50 -37 -77 -61 -37 -33 -50 -52 -52 -75 -1 -17 -1 -31 1 -31 17 0
65 25 65 34 0 26 25 11 26 -15 2 -45 12 -59 59 -80 78 -35 236 -27 266 13 16
20 18 21 34 5 23 -23 29 -22 93 17 32 18 78 45 103 59 25 14 60 39 78 54 75
64 151 141 151 152 0 7 -4 9 -10 6 -15 -9 -12 13 5 39 14 21 13 32 -5 121 -22
105 -26 199 -10 239 6 17 6 27 -1 32 -6 4 -7 10 0 17 5 7 10 37 10 67 10 393
8 420 -29 420 -18 0 -19 4 -14 32 3 18 6 40 6 48 1 8 6 42 13 75 6 33 13 91
14 130 1 38 6 74 10 80 20 25 45 200 52 358 1 32 5 60 10 62 12 8 19 153 23
481 3 253 0 331 -13 423 -11 68 -14 114 -8 118 5 3 44 6 86 6 70 1 76 -1 74
-19 -5 -37 -3 -259 2 -319 13 -141 27 -263 36 -310 6 -27 18 -104 29 -170 48
-312 187 -1026 205 -1055 3 -5 12 -66 20 -137 8 -70 17 -150 21 -178 3 -27 12
-60 20 -72 17 -27 37 -286 23 -291 -5 -2 -16 -17 -24 -32 -20 -38 -8 -66 45
-110 23 -19 69 -61 101 -92 63 -60 142 -118 162 -118 7 0 54 -25 105 -55 51
-30 111 -63 135 -74 51 -23 164 -54 180 -48 6 2 29 -2 51 -8 58 -17 132 2 151
39 18 34 19 83 2 113 -48 84 -47 83 -26 96 23 14 25 54 5 100 -24 59 -137 159
-324 289 -18 13 -37 33 -42 46 -13 32 -60 31 -60 -1 0 -29 12 -43 83 -96 32
-24 56 -46 53 -48 -2 -2 -13 1 -24 8 -30 19 -98 1 -94 -24 3 -15 0 -17 -17 -8
-11 6 -44 17 -73 25 -52 13 -53 14 -64 62 -6 28 -7 54 -2 60 5 7 11 41 15 78
10 105 27 101 41 -8 6 -51 14 -100 18 -109 8 -21 36 -30 45 -15 10 16 1 134
-13 170 -7 19 -7 37 2 62 12 38 12 204 -1 211 -4 3 -5 20 -2 39 3 18 0 58 -6
87 -7 29 -14 112 -17 184 -3 71 -9 141 -15 155 -5 14 -9 39 -8 55 0 17 1 84 2
150 1 203 2 215 8 215 17 0 24 261 29 1028 1 180 2 182 23 182 12 0 28 -9 35
-20 7 -11 19 -20 27 -20 51 0 270 -100 340 -155 22 -17 47 -34 56 -38 34 -12
136 -97 186 -155 29 -33 91 -98 138 -145 47 -47 85 -91 85 -97 0 -14 107 -120
121 -120 5 0 12 -7 15 -15 4 -8 12 -15 20 -15 8 0 14 -4 14 -8 0 -11 118 -87
185 -120 89 -43 95 -46 95 -54 0 -10 101 -56 155 -69 33 -8 57 -8 89 0 25 6
60 11 78 11 18 0 44 9 58 20 14 11 30 20 36 20 6 0 17 7 24 15 7 9 19 14 25
11 7 -2 22 2 33 10 12 8 25 13 29 12 16 -4 73 14 73 23 0 5 13 3 29 -6 17 -8
32 -11 36 -6 3 5 19 12 36 16 16 4 35 15 42 26 6 10 17 19 23 19 13 0 104 83
104 94 0 4 7 14 15 23 9 9 13 23 10 34 -4 12 -1 21 9 25 24 9 19 26 -18 70
-51 60 -156 107 -227 102 -53 -4 -66 -31 -25 -49 14 -7 26 -20 26 -29 0 -24
26 -43 49 -37 12 3 23 -4 35 -23 36 -63 11 -109 -89 -165 -54 -31 -67 -34 -83
-24 -16 10 -24 9 -47 -9 -39 -31 -84 -29 -110 5 -13 15 -27 23 -33 19 -19 -11
-14 -54 8 -76 20 -20 20 -20 -17 -35 -94 -40 -215 -46 -282 -16 l-42 18 83 -3
c46 -1 91 -5 101 -9 12 -5 24 0 37 15 10 12 23 19 28 16 15 -9 52 61 59 109 5
39 9 45 54 66 26 13 48 30 49 36 0 7 3 12 8 11 13 -4 79 45 88 66 5 12 17 20
27 18 12 -2 17 4 17 22 0 14 -5 28 -12 32 -18 11 -95 9 -110 -3 -7 -6 -26 -13
-43 -15 -19 -2 -34 -11 -41 -26 -7 -14 -13 -19 -16 -11 -7 20 -56 2 -60 -22
-2 -15 -20 -28 -62 -45 -55 -22 -64 -23 -124 -12 -48 9 -68 18 -79 35 -13 19
-22 23 -43 18 -49 -11 -158 69 -240 175 -14 18 -34 44 -46 59 -11 14 -37 51
-57 81 -20 30 -46 69 -57 85 -11 17 -42 64 -69 105 -215 334 -277 420 -403
554 -42 45 -89 88 -105 96 -15 8 -30 17 -33 21 -10 11 -103 50 -124 53 -12 1
-45 13 -74 26 l-54 25 6 60 c3 33 7 69 10 80 2 11 7 58 10 105 4 47 10 108 13
135 5 45 7 458 3 560 -1 22 -11 78 -22 125 -11 47 -22 118 -25 158 -6 83 -1
87 76 52 24 -11 47 -20 52 -20 32 0 149 -110 245 -230 172 -215 251 -383 255
-545 3 -91 -9 -171 -33 -218 -10 -21 -17 -41 -14 -46 3 -4 -7 -20 -22 -36 -51
-54 -72 -112 -67 -186 5 -80 23 -127 73 -188 20 -24 53 -70 72 -102 52 -84
113 -161 155 -195 20 -16 51 -43 68 -60 26 -26 36 -30 55 -23 13 5 22 14 21
21 -1 7 -1 23 0 36 l1 23 33 -22 c17 -13 38 -29 45 -36 7 -6 32 -15 56 -18 39
-6 45 -11 59 -46 8 -21 22 -39 31 -39 16 0 31 34 21 50 -3 5 5 22 19 37 27 28
56 105 62 163 10 102 7 126 -24 192 -18 36 -32 71 -32 77 0 14 -26 61 -72 131
-61 94 -131 158 -243 225 -15 9 -15 17 5 105 30 128 33 286 9 405 -28 140 -46
188 -126 320 -7 11 -17 30 -22 43 -26 56 -222 261 -290 303 -14 9 -50 39 -78
66 -38 37 -63 52 -91 57 -116 18 -329 157 -372 242 -25 50 -25 50 0 57 26 7
25 19 -3 54 -13 15 -34 55 -48 88 -22 55 -32 77 -86 175 -17 33 -73 120 -114
181 -10 15 -24 43 -33 63 -8 20 -31 53 -52 73 -62 64 -124 140 -124 151 0 7
-21 31 -46 54 -25 23 -59 60 -77 82 -28 37 -28 38 -4 17 27 -24 57 -23 57 2 0
8 -44 54 -97 103 -163 148 -285 281 -298 324 -12 39 -45 80 -63 80 -27 0 -160
287 -147 317 5 10 7 23 6 29 0 6 5 17 13 23 8 7 12 19 9 26 -3 8 1 21 9 28 16
17 43 140 34 162 -3 8 -14 15 -25 15 -15 0 -22 -9 -26 -37z m-7 -553 c39 -83
67 -130 77 -130 8 0 15 6 15 13 0 6 20 -25 45 -71 24 -45 51 -92 60 -104 8
-13 15 -27 15 -33 0 -13 -68 65 -76 88 -3 9 -9 17 -13 17 -4 0 -13 16 -20 35
-13 37 -46 49 -57 20 -11 -28 122 -223 237 -345 28 -30 67 -74 86 -97 37 -45
60 -54 70 -27 5 13 9 11 22 -9 9 -13 37 -49 63 -78 103 -120 168 -201 168
-212 0 -7 14 -37 30 -67 16 -30 41 -78 55 -107 13 -29 33 -56 43 -62 11 -6 27
-27 36 -48 45 -98 129 -236 178 -289 10 -12 26 -46 34 -75 18 -69 48 -278 40
-286 -3 -3 -23 5 -43 20 -21 14 -48 28 -60 32 -13 3 -23 11 -23 16 0 5 -5 9
-10 9 -23 0 -155 128 -197 191 -15 23 -31 47 -35 53 -63 92 -156 319 -174 421
-7 42 -29 75 -50 75 -21 0 -21 -31 2 -120 30 -119 118 -319 185 -420 52 -79
147 -190 161 -190 4 0 20 -13 36 -30 17 -16 38 -30 46 -30 9 0 16 -5 16 -10 0
-6 8 -13 18 -17 9 -3 47 -24 85 -46 63 -37 67 -42 68 -76 0 -20 2 -44 4 -54 2
-11 -5 -21 -18 -26 -20 -8 -21 -12 -23 -397 -1 -214 -4 -409 -7 -434 -3 -25
-8 -88 -12 -140 -3 -52 -10 -131 -15 -175 -30 -260 -30 -268 -2 -280 29 -13
29 -46 -1 -89 -22 -34 -155 -138 -212 -168 -156 -80 -166 -85 -245 -103 -113
-26 -231 -18 -317 21 -17 8 -34 14 -38 14 -10 0 -87 61 -112 89 -36 41 -72 10
-38 -35 16 -21 19 -62 6 -83 -7 -11 -15 -10 -47 5 -22 9 -52 27 -69 39 -47 34
-63 37 -75 14 -6 -10 -9 -23 -6 -27 11 -18 -150 -5 -213 17 -56 19 -90 34
-211 90 -14 7 -47 25 -75 41 -88 53 -95 55 -115 42 -14 -9 -21 -8 -31 4 -6 8
-23 13 -37 12 -21 -3 -29 5 -51 47 -23 45 -48 130 -66 220 -3 17 -7 63 -9 103
-3 63 -1 74 15 83 11 5 19 14 19 19 0 6 9 19 20 30 11 11 20 29 20 40 0 11 4
20 9 20 9 0 25 -173 30 -342 1 -13 7 -15 29 -9 18 6 26 14 25 27 -4 43 -16
345 -17 429 -1 111 5 163 21 195 7 14 13 33 13 43 0 11 8 17 21 17 20 0 21 4
15 51 -7 53 15 226 40 311 8 26 14 65 14 87 0 22 5 43 11 46 6 4 8 13 6 20 -7
16 11 102 29 143 9 18 13 38 11 45 -2 7 3 23 13 37 9 14 22 45 29 70 7 25 17
58 22 74 21 67 1 116 -35 87 -16 -13 -20 0 -32 88 l-7 53 23 -12 c20 -11 25
-10 36 5 10 13 10 25 -1 61 -7 24 -12 44 -10 44 2 0 -3 22 -10 50 -8 29 -9 52
-4 56 5 3 9 0 9 -5 0 -14 23 -14 37 0 8 8 7 26 -5 66 -14 52 -14 57 1 68 9 7
17 18 17 26 0 20 -51 150 -70 179 -20 30 -70 168 -70 193 0 24 27 76 55 107
12 14 28 39 36 57 11 27 15 29 24 16 8 -11 17 -13 28 -7 24 14 126 156 132
187 4 15 11 27 16 27 5 0 14 12 19 26 6 14 19 28 29 31 10 3 26 23 36 46 9 23
23 53 30 67 7 14 16 42 19 64 4 21 12 48 18 60 25 49 28 57 28 85 0 17 5 33
10 36 6 3 10 14 10 24 0 9 9 36 20 59 11 22 20 50 20 60 0 21 8 32 25 32 6 0
39 -58 73 -130z m-263 -207 c-4 -21 -10 -42 -15 -48 -4 -5 -13 -27 -19 -47 -7
-21 -17 -38 -22 -38 -5 0 -25 -25 -45 -55 -28 -42 -43 -55 -62 -55 -14 0 -31
-8 -38 -17 -13 -17 -13 -17 -14 0 0 10 18 37 40 59 22 23 40 48 40 55 0 7 11
20 25 29 14 9 28 28 32 42 3 14 13 33 22 42 9 10 24 30 34 44 25 36 30 33 22
-11z m-452 -755 c9 -29 19 -69 22 -88 5 -28 0 -22 -25 30 -17 36 -35 73 -40
82 -9 15 -2 24 21 27 4 1 13 -23 22 -51z m1705 -383 c-3 -3 -9 2 -12 12 -6 14
-5 15 5 6 7 -7 10 -15 7 -18z m194 -313 c10 -24 196 -132 228 -132 56 0 273
-161 385 -285 64 -71 154 -193 155 -210 0 -6 15 -42 34 -80 54 -114 71 -199
71 -365 0 -84 -5 -162 -12 -185 -7 -22 -21 -70 -32 -107 -22 -69 -20 -101 5
-91 8 3 14 -1 14 -8 0 -11 2 -11 10 1 27 42 200 -108 269 -234 63 -114 98
-249 85 -332 -6 -46 -24 -61 -24 -21 0 36 -36 144 -65 195 -36 62 -109 134
-130 126 -22 -9 -19 -38 7 -60 38 -34 98 -136 118 -203 10 -36 17 -67 15 -70
-6 -6 -3 -11 -65 94 -119 199 -163 255 -204 255 -43 0 -39 -19 16 -79 54 -60
101 -129 158 -236 18 -33 37 -64 41 -69 14 -15 10 -36 -6 -36 -14 0 -105 82
-105 95 0 12 -115 135 -126 135 -13 0 -24 -22 -24 -46 0 -9 11 -30 25 -48 27
-36 44 -96 27 -96 -9 0 -41 31 -118 115 -26 28 -74 119 -74 141 0 6 -22 33
-49 59 -50 49 -58 69 -66 155 -6 72 20 140 54 140 6 0 16 20 23 45 7 25 15 45
19 45 4 0 10 19 14 43 4 23 11 47 16 53 13 16 13 217 0 241 -6 11 -8 23 -5 26
15 14 -75 221 -132 302 -15 22 -41 60 -57 85 -17 25 -58 77 -91 115 -92 105
-91 104 -64 98 32 -7 107 -43 114 -54 9 -15 41 -10 48 7 4 9 1 23 -6 32 -18
21 -118 66 -219 98 -84 27 -117 44 -154 77 -11 10 -26 15 -35 11 -26 -12 -62
-7 -81 13 -12 12 -21 44 -28 98 -6 44 -13 102 -17 129 -7 47 -6 48 14 37 11
-6 22 -14 24 -19z m-1972 -621 c0 -10 -7 -24 -15 -31 -13 -10 -15 -9 -15 12 0
14 3 28 7 31 12 13 23 7 23 -12z m-75 -90 c23 -76 16 -95 -27 -86 -42 9 -47
14 -25 26 22 13 22 36 0 42 -10 3 -52 6 -93 7 -73 2 -114 5 -135 10 -16 3 46
21 90 26 22 2 47 6 55 7 70 14 91 20 96 28 10 17 20 1 39 -60z m-229 -130 c17
-16 138 -53 192 -58 28 -3 52 -10 52 -16 0 -26 -224 32 -260 68 -15 16 -1 21
16 6z m274 -370 c0 -11 -4 -22 -9 -25 -4 -3 -11 -18 -14 -33 -7 -35 -47 -126
-53 -120 -2 2 1 28 7 58 7 30 13 61 14 69 6 54 55 99 55 51z m2022 -512 c-5
-41 19 -63 61 -55 28 5 38 13 43 32 6 22 10 24 38 18 17 -3 40 -14 51 -24 11
-10 29 -20 40 -24 50 -15 237 -228 331 -377 17 -28 40 -60 52 -72 11 -12 34
-48 51 -79 18 -31 39 -62 46 -68 8 -7 15 -17 15 -22 0 -6 26 -49 58 -96 31
-48 62 -94 67 -103 11 -19 144 -192 172 -224 32 -37 142 -123 165 -130 13 -4
30 -14 40 -22 15 -13 15 -18 -4 -64 -15 -35 -26 -49 -41 -49 -31 0 -138 58
-177 95 -19 19 -50 47 -68 61 -46 37 -191 218 -204 254 -12 36 -43 56 -62 41
-10 -8 -21 6 -48 62 -19 39 -38 82 -42 95 -4 12 -11 22 -16 22 -5 0 -39 44
-76 98 -36 53 -90 126 -119 162 -28 36 -63 83 -77 106 -14 22 -41 56 -60 76
-20 21 -32 43 -30 56 2 12 -6 27 -20 37 -50 35 -145 87 -180 98 -40 12 -56 33
-38 51 5 5 10 25 10 44 0 22 4 32 13 29 6 -2 11 -15 9 -28z m6 -154 l37 -26
-45 3 c-38 3 -45 7 -48 26 -4 29 10 28 56 -3z m101 -116 c18 -11 31 -23 28
-26 -6 -5 -77 34 -77 43 0 9 16 3 49 -17z m-1957 -55 c24 -13 51 -26 61 -30
12 -4 16 -12 11 -23 -4 -9 -10 -38 -13 -66 l-6 -50 -14 55 c-16 62 -37 100
-56 100 -31 0 -27 -28 35 -230 24 -78 27 -124 10 -207 -13 -67 -30 -75 -30
-15 -1 20 -5 57 -11 82 -5 25 -14 74 -18 110 -5 36 -16 106 -25 155 -9 50 -19
110 -22 135 -6 44 -5 44 15 26 11 -10 40 -29 63 -42z m1828 18 c25 -11 54 -28
65 -37 19 -16 19 -16 -9 -12 -38 6 -56 -1 -56 -22 -1 -14 -2 -14 -11 2 -5 9
-15 17 -22 17 -28 1 -39 17 -32 49 4 17 10 30 13 28 4 -2 27 -13 52 -25z
m-138 -77 c9 -65 4 -82 -12 -41 -7 20 -16 27 -33 24 -26 -4 -26 -8 1 -148 23
-122 42 -282 42 -357 0 -128 -61 -550 -97 -673 -26 -90 -75 -233 -90 -262 -15
-31 -16 -38 -5 -56 13 -19 62 2 62 27 0 11 4 22 9 25 5 3 12 22 15 41 4 19 11
35 16 35 4 0 11 19 15 43 4 23 13 56 21 72 7 17 16 48 20 69 3 22 10 50 15 63
5 13 8 27 8 31 -1 4 -1 21 1 37 1 24 3 26 9 11 4 -10 6 -32 4 -50 -2 -17 -3
-64 -4 -105 0 -42 -7 -93 -16 -115 -8 -23 -17 -72 -18 -111 -7 -161 -33 -315
-64 -372 -16 -31 -14 -70 5 -77 23 -9 30 -2 44 49 25 91 36 58 52 -167 12
-167 12 -168 -10 -191 -17 -18 -22 -36 -23 -83 -1 -32 -5 -70 -9 -84 -7 -21
-8 -18 -9 20 -2 54 -12 73 -34 64 -12 -4 -17 -18 -18 -48 -1 -72 -9 -169 -19
-219 -6 -26 -10 -65 -10 -87 0 -48 -8 -70 -26 -70 -7 0 -16 -11 -20 -25 -3
-14 -12 -25 -20 -25 -8 0 -14 -7 -14 -15 0 -8 -4 -15 -10 -15 -5 0 -10 5 -10
10 0 6 -11 10 -25 10 -29 0 -32 10 -40 125 -3 44 -7 95 -10 114 -2 19 -2 38 1
42 2 5 5 61 6 126 1 65 6 126 12 135 11 19 -7 48 -30 48 -8 0 -16 10 -18 23
-2 12 -14 69 -25 127 -24 122 -40 189 -51 211 -4 8 -13 42 -20 74 -7 32 -16
66 -20 74 -36 69 -56 153 -74 301 -3 19 -13 80 -24 135 -11 55 -24 129 -27
165 -4 36 -11 72 -15 81 -5 8 -11 40 -13 70 -3 30 -12 95 -21 144 -14 82 -27
233 -30 342 -1 23 -4 45 -8 49 -4 4 -5 11 -1 17 3 5 7 33 9 61 2 29 10 56 18
62 8 5 14 19 13 29 -2 23 13 28 148 51 57 10 112 25 128 36 15 11 27 17 27 15
0 -3 17 2 38 10 20 7 45 16 55 20 9 3 17 9 17 14 0 5 9 9 20 9 11 0 20 5 20
10 0 6 5 10 10 10 15 0 130 82 130 93 0 5 6 7 13 5 6 -3 15 -31 19 -63z m382
-10 c9 -14 15 -25 13 -25 -7 0 -47 37 -47 44 0 14 19 4 34 -19z m-1819 -53
c11 -3 22 -8 25 -12 3 -4 23 -12 45 -18 149 -41 282 -85 296 -98 9 -8 24 -34
32 -57 16 -42 70 -261 81 -327 23 -145 26 -318 8 -450 -18 -129 -17 -159 3
-174 14 -10 16 -24 11 -92 -16 -210 -24 -255 -47 -277 -16 -15 -19 -32 -19
-105 0 -73 -13 -203 -36 -350 -3 -18 -14 -41 -25 -50 -10 -9 -19 -23 -19 -32
0 -8 -5 -22 -10 -30 -6 -10 -8 2 -4 35 3 28 6 70 9 95 2 25 5 52 8 60 21 62
10 98 -26 85 -43 -17 -66 -412 -37 -625 14 -105 23 -124 53 -114 19 6 20 3 14
-70 -3 -43 -11 -84 -18 -92 -10 -12 -15 -10 -35 11 -13 14 -27 25 -33 25 -5 0
-11 12 -13 28 -2 18 -9 27 -20 27 -10 0 -17 -3 -15 -6 4 -13 -37 -49 -56 -49
-11 0 -28 -7 -38 -16 -16 -14 -18 -14 -28 4 -11 21 -40 129 -46 172 -2 14 -8
68 -14 120 -19 173 -29 214 -71 302 -22 48 -45 90 -51 93 -5 4 -9 14 -9 23 0
9 -6 29 -13 43 -8 14 -17 45 -21 70 -7 43 -19 90 -37 137 -9 22 4 32 16 12 9
-14 58 -13 73 2 7 7 12 25 12 40 0 34 -27 49 -45 25 -10 -14 -13 -12 -23 21
-39 128 -60 299 -68 542 -2 80 -6 170 -8 200 -14 174 -15 245 -5 288 6 26 11
77 11 115 0 37 4 67 9 67 10 0 12 -26 9 -116 -1 -50 1 -62 16 -68 28 -11 46
16 46 70 -1 72 -8 258 -17 427 l-8 148 59 -27 c33 -14 68 -29 79 -32z m1555 3
c29 -17 70 -20 70 -5 0 6 7 10 15 10 8 0 15 -4 15 -10 0 -5 17 -17 38 -26 20
-10 38 -18 40 -19 1 -1 0 -10 -4 -19 -8 -20 -42 -21 -63 -2 -9 8 -45 20 -81
27 -62 12 -95 32 -84 50 7 13 25 10 54 -6z m-910 -60 l65 -34 -36 -1 c-24 0
-39 5 -43 15 -3 8 -13 15 -21 15 -24 0 -56 20 -50 31 9 13 13 12 85 -26z
m1226 -10 c10 -8 29 -15 40 -15 13 0 31 -15 48 -38 35 -51 33 -60 -7 -29 -31
24 -75 50 -137 84 l-25 13 31 0 c16 0 39 -7 50 -15z m172 -146 c7 -12 11 -23
9 -26 -9 -9 -47 17 -47 32 0 22 23 18 38 -6z m1641 -524 c31 -35 39 -51 22
-41 -5 3 -14 -1 -21 -9 -19 -23 -27 -18 -32 18 -3 17 -8 40 -13 50 -12 29 11
19 44 -18z m-612 -201 c-7 -42 -11 -49 -27 -39 -8 5 -8 11 1 21 6 7 9 20 6 28
-6 15 1 26 16 26 5 0 7 -16 4 -36z m-62 -24 c3 -5 -1 -10 -9 -10 -8 0 -18 5
-21 10 -3 6 1 10 9 10 8 0 18 -4 21 -10z m-2556 -1209 c-2 -115 -6 -136 -25
-120 -16 13 -19 185 -3 195 5 3 9 22 10 42 l1 37 9 -30 c5 -16 9 -72 8 -124z
m-112 22 c-3 -10 -5 -4 -5 12 0 17 2 24 5 18 2 -7 2 -21 0 -30z m18 -228 c5
-54 3 -77 -4 -70 -12 13 -24 110 -15 137 9 30 13 19 19 -67z m105 -435 c0 -11
-4 -20 -10 -20 -5 0 -10 9 -10 20 0 11 5 20 10 20 6 0 10 -9 10 -20z m1295
-33 l35 -32 -32 -1 c-19 -1 -37 -10 -48 -24 -12 -16 -23 -21 -38 -15 -25 7
-30 25 -8 25 19 0 25 20 14 48 -19 52 20 51 77 -1z m-336 -48 c25 -9 29 -14
20 -25 -15 -18 -19 -18 -54 11 -33 28 -20 33 34 14z m-1259 -79 c-19 -13 -30
-13 -30 0 0 6 10 10 23 10 18 0 19 -2 7 -10z m1705 -80 c0 -8 -12 -21 -27 -29
-25 -15 -28 -14 -42 4 -10 15 -11 23 -4 33 15 17 73 11 73 -8z m-260 -20 c4
-6 4 -18 1 -26 -5 -13 -9 -13 -31 2 -14 9 -22 20 -19 25 7 12 41 11 49 -1z
m333 -53 c2 -16 -2 -35 -9 -43 -15 -18 -59 -18 -59 0 0 8 -6 17 -12 19 -7 3
-3 6 8 6 15 1 24 10 28 27 9 35 40 28 44 -9z m-2078 -22 c10 -13 9 -15 -9 -15
-12 0 -21 6 -21 15 0 8 4 15 9 15 5 0 14 -7 21 -15z" />
		<path d="M2915 5780 c-9 -14 1 -41 50 -145 63 -132 167 -436 190 -555 15 -78
26 -110 39 -110 19 0 24 19 19 65 -6 54 -41 193 -58 230 -7 17 -28 75 -45 130
-39 126 -69 203 -92 237 -10 14 -18 30 -18 35 0 4 -12 34 -27 65 -27 55 -45
70 -58 48z" />
		<path d="M2375 5440 c-3 -11 -4 -23 -1 -28 2 -4 1 -37 -4 -72 -5 -36 -14 -97
-19 -136 -6 -38 -13 -101 -16 -140 -3 -38 -8 -76 -10 -84 -2 -8 -9 -62 -16
-120 -6 -58 -13 -116 -15 -130 -7 -39 -23 -204 -33 -320 -10 -120 -6 -285 10
-344 25 -101 82 -189 149 -231 59 -37 182 -56 207 -32 3 4 17 7 29 7 13 0 25
4 29 9 3 5 19 12 35 16 17 4 30 11 30 16 0 5 9 9 21 9 12 0 23 8 26 18 2 10
20 26 39 37 19 10 34 21 34 25 0 4 31 41 70 81 38 41 70 79 70 84 0 11 11 27
58 85 12 15 22 35 22 44 0 9 15 44 33 78 38 73 63 145 54 155 -4 3 -2 12 5 20
14 18 3 166 -18 242 -30 102 -74 159 -90 116 -3 -8 6 -50 21 -92 15 -43 29
-108 32 -144 6 -73 -11 -186 -35 -234 -60 -119 -89 -170 -131 -232 -49 -71
-196 -223 -232 -239 -109 -52 -151 -60 -218 -44 -34 8 -63 24 -94 53 -61 57
-73 81 -86 162 -24 161 -24 163 4 530 3 39 10 88 15 110 5 22 10 51 9 65 0 14
2 39 5 55 11 81 33 265 40 340 2 22 6 47 9 55 4 8 11 57 17 109 8 70 8 97 -1
107 -17 20 -47 17 -54 -6z" />
		<path d="M2620 4515 c-7 -8 -10 -21 -7 -30 4 -8 2 -17 -3 -20 -6 -4 -10 -16
-10 -28 0 -12 -12 -42 -25 -66 -25 -42 -26 -81 -3 -81 6 0 8 -13 4 -35 -5 -27
-2 -39 14 -55 11 -11 24 -20 29 -20 18 0 50 52 65 103 17 63 15 209 -4 232
-16 19 -44 19 -60 0z" />
		<path d="M1526 6854 c-4 -11 12 -45 47 -98 61 -91 106 -172 184 -327 48 -98
71 -127 87 -112 13 14 5 61 -19 103 -14 25 -38 72 -55 105 -49 97 -104 196
-146 260 -50 76 -46 71 -70 79 -15 5 -24 2 -28 -10z" />
		<path d="M1259 6484 c-13 -7 -34 -13 -45 -14 -37 0 -49 -25 -30 -64 20 -42
106 -116 135 -116 60 0 -16 -48 -94 -59 -30 -5 -41 -11 -43 -26 -5 -37 29 -46
94 -26 33 10 69 24 81 31 19 12 24 12 40 -2 67 -59 194 -78 201 -30 3 18 -2
22 -25 23 -63 3 -84 9 -118 36 -19 15 -35 30 -35 33 0 7 51 60 78 82 24 20 30
66 10 86 -7 7 -25 12 -41 12 -15 0 -36 4 -46 9 -9 6 -45 16 -78 24 -50 11 -65
12 -84 1z m8 -96 c-3 -8 -6 -5 -6 6 -1 11 2 17 5 13 3 -3 4 -12 1 -19z" />
		<path d="M66 5156 c-43 -40 -46 -74 -15 -140 19 -41 39 -59 121 -109 86 -53
308 -78 376 -43 58 30 37 50 -51 47 -58 -2 -59 -1 -53 21 3 13 6 26 6 31 0 4
7 7 16 7 11 0 14 8 12 28 -3 26 -6 27 -76 34 -40 3 -76 9 -79 12 -4 3 1 14 11
25 12 13 28 18 64 16 56 -3 82 8 82 35 0 23 -36 35 -78 27 -15 -3 -49 -1 -77
4 -87 17 -97 14 -99 -23 -1 -19 -8 -24 -41 -28 -35 -4 -40 -8 -40 -30 0 -22 4
-25 42 -27 28 -1 51 -9 65 -23 13 -12 35 -24 51 -27 33 -7 46 -23 19 -23 -22
0 -46 -23 -35 -33 10 -11 -4 -8 -56 9 -101 33 -179 159 -110 177 34 9 20 67
-16 67 -2 0 -20 -15 -39 -34z" />
	</g>
</svg>