<?xml version="1.0" standalone="no"?>
<!DOCTYPE svg PUBLIC "-//W3C//DTD SVG 20010904//EN" "http://www.w3.org/TR/2001/REC-SVG-20010904/DTD/svg10.dtd">
<svg version="1.0" xmlns="http://www.w3.org/2000/svg" width="858.000000pt" height="733.000000pt"
	viewBox="0 0 858.000000 733.000000" preserveAspectRatio="xMidYMid meet">

	<g transform="translate(0.000000,733.000000) scale(0.100000,-0.100000)" fill="#000000" stroke="none">
		<path d="M228 7284 c-16 -8 -30 -26 -33 -42 -10 -43 -12 -52 -44 -146 -47
-137 -49 -168 -15 -217 15 -22 45 -54 66 -71 34 -26 71 -77 67 -93 -3 -15 14
-85 20 -85 5 0 28 -17 52 -38 24 -22 50 -41 57 -43 8 -3 1 -11 -17 -22 l-30
-18 -16 31 c-12 22 -22 30 -43 30 -30 -1 -62 -21 -62 -39 0 -14 -88 -5 -105
10 -5 5 -24 9 -41 9 -46 0 -64 -38 -54 -113 5 -30 11 -66 15 -78 9 -29 92
-129 114 -137 9 -3 30 -15 46 -26 50 -35 67 -45 135 -77 36 -17 74 -35 85 -40
81 -39 205 -213 259 -364 10 -27 22 -59 27 -70 10 -21 16 -50 50 -225 17 -92
19 -132 14 -320 -5 -231 -9 -290 -25 -360 -6 -25 -8 -70 -5 -100 6 -59 52
-229 66 -244 5 -6 9 -17 9 -25 0 -9 7 -29 16 -46 9 -16 36 -67 59 -112 23 -46
47 -89 53 -95 5 -7 13 -24 17 -38 4 -14 13 -32 20 -40 7 -8 21 -31 32 -50 21
-40 75 -122 84 -130 3 -3 11 -15 18 -27 21 -41 112 -153 157 -195 92 -85 154
-261 185 -528 14 -116 20 -466 10 -515 -5 -22 -12 -69 -15 -105 -10 -100 -88
-342 -141 -440 -8 -14 -22 -42 -31 -62 -9 -21 -20 -38 -26 -38 -5 0 -19 -22
-32 -50 -13 -27 -28 -55 -33 -62 -6 -7 -53 -96 -105 -198 -52 -102 -101 -196
-110 -210 -8 -14 -24 -50 -34 -80 -10 -30 -23 -62 -29 -70 -7 -8 -20 -37 -30
-65 -10 -27 -23 -56 -29 -64 -5 -7 -15 -21 -21 -30 -5 -10 -20 -33 -32 -52
-12 -19 -34 -56 -50 -82 -15 -27 -38 -62 -51 -77 -12 -15 -22 -32 -22 -37 0
-6 -10 -18 -21 -29 -12 -10 -28 -34 -36 -51 -7 -18 -19 -33 -25 -33 -10 0 -85
-46 -98 -60 -3 -3 -31 -19 -62 -34 -32 -16 -60 -36 -63 -45 -3 -9 -21 -25 -41
-36 -20 -11 -55 -44 -77 -73 -35 -48 -38 -57 -27 -77 9 -16 18 -21 36 -17 19
3 23 1 18 -11 -7 -18 32 -57 58 -57 10 0 27 -9 37 -19 21 -21 155 -43 230 -37
25 2 58 0 75 -5 17 -5 34 -5 39 0 5 5 24 5 42 1 18 -4 53 -3 77 2 24 5 67 11
97 13 59 5 101 26 101 52 0 9 7 23 15 32 23 24 85 119 85 130 0 6 9 15 20 21
11 6 20 19 20 30 0 10 9 29 20 42 53 63 67 84 63 96 -3 7 1 11 8 10 7 -2 18
11 24 28 5 17 22 47 37 67 16 19 28 43 28 52 0 9 11 28 24 42 13 14 32 43 43
64 10 21 21 39 25 39 3 0 9 14 13 30 4 17 15 35 26 40 10 6 19 16 19 23 0 7
16 29 35 50 19 21 35 47 35 57 0 10 5 22 10 25 5 3 10 15 10 26 0 10 5 19 10
19 6 0 10 8 10 18 0 9 9 28 20 42 11 14 20 33 20 43 0 9 4 17 9 17 5 0 15 17
21 37 7 21 23 52 36 70 13 17 24 37 24 43 0 6 7 18 15 26 8 8 12 21 9 29 -3 7
3 18 15 24 18 10 81 125 81 148 0 4 9 14 19 20 11 7 22 25 26 41 3 16 17 39
30 51 14 11 25 27 25 34 0 8 11 24 25 37 14 13 25 28 25 34 0 6 16 27 35 46
19 19 35 39 35 45 0 6 27 40 60 75 33 36 60 71 60 78 0 6 7 12 15 12 9 0 20
11 25 25 6 16 14 23 25 19 17 -7 19 -25 5 -74 -10 -38 -16 -111 -25 -310 -4
-69 -10 -147 -15 -175 -5 -27 -12 -86 -15 -130 -13 -169 -43 -279 -92 -338
-13 -16 -23 -32 -23 -37 0 -17 -95 -108 -120 -115 -28 -7 -122 -55 -130 -65
-5 -7 -17 -13 -145 -78 -79 -39 -149 -110 -165 -166 -17 -62 -11 -88 23 -97
16 -4 44 -24 63 -43 19 -20 38 -36 42 -37 4 0 25 -2 47 -4 22 -3 60 -5 85 -5
50 -1 76 -16 81 -45 4 -17 14 -20 74 -22 39 -2 108 4 155 12 47 8 99 16 115
18 46 7 98 30 117 52 9 11 22 40 29 65 8 29 24 55 45 73 19 16 31 34 28 42 -3
8 6 21 23 32 15 10 33 25 40 34 7 9 25 19 41 22 33 7 67 66 78 137 4 25 12 52
19 60 13 15 25 59 30 109 9 81 17 138 21 151 3 8 8 35 10 60 6 53 24 141 33
155 15 26 40 113 41 141 0 17 3 34 7 38 4 4 8 23 9 44 4 98 28 199 71 288 8
17 17 46 20 65 3 19 9 42 15 52 5 10 11 27 13 39 6 27 44 109 62 129 7 9 21
33 32 54 17 35 22 38 62 40 24 1 62 -4 84 -10 22 -7 58 -11 80 -9 191 16 262
16 340 -4 44 -11 84 -17 90 -14 10 6 82 14 128 13 16 0 39 6 52 15 12 8 27 14
31 13 5 -1 16 0 24 4 8 3 49 11 90 17 41 7 80 17 87 22 7 5 16 7 21 4 5 -3 39
3 76 13 78 22 215 26 301 10 87 -16 173 -20 180 -9 3 6 19 10 35 10 19 0 33 7
40 21 19 34 52 20 80 -33 14 -25 34 -56 45 -68 18 -20 93 -60 113 -60 18 0 88
-39 108 -62 38 -41 86 -167 90 -238 2 -36 20 -117 40 -180 19 -63 42 -146 49
-185 7 -38 16 -81 19 -95 8 -32 8 -313 1 -365 -3 -22 -13 -53 -21 -69 -7 -16
-14 -35 -14 -43 0 -7 -4 -13 -9 -13 -5 0 -16 -16 -25 -35 -17 -36 -57 -70
-115 -100 -31 -15 -71 -25 -235 -55 -58 -11 -63 -15 -46 -35 11 -13 7 -20 -22
-48 -46 -43 -80 -102 -76 -129 3 -20 9 -23 53 -25 60 -2 73 -5 102 -21 21 -12
21 -14 7 -47 -11 -28 -12 -39 -2 -55 16 -26 17 -26 56 10 18 16 40 30 48 30 8
0 14 5 14 11 0 5 5 7 10 4 6 -4 18 -1 27 7 14 11 17 11 21 -1 2 -7 13 -22 22
-31 17 -17 17 -18 -1 -23 -22 -6 -25 -39 -5 -57 22 -17 60 -8 71 18 5 12 15
22 20 22 6 0 21 9 34 21 12 11 28 18 36 15 8 -3 28 6 44 19 16 14 33 25 37 25
5 0 20 9 34 20 14 11 30 20 37 20 7 0 25 12 41 27 44 42 71 63 81 63 5 0 12 6
15 13 5 9 7 9 12 0 7 -16 110 -18 119 -3 3 6 14 10 23 10 9 0 37 17 60 37 24
20 54 42 65 48 12 6 23 21 25 33 2 12 7 20 11 18 10 -6 34 53 50 120 12 52 7
119 -10 130 -5 3 -9 14 -9 24 0 10 -6 25 -13 32 -7 7 -24 40 -37 73 -20 50
-24 79 -27 190 -1 71 -2 155 -1 185 1 30 2 90 2 132 1 43 4 78 7 78 3 0 6 102
6 228 1 125 2 230 2 235 1 10 39 9 45 -2 5 -7 59 -20 111 -24 11 -1 25 -5 31
-9 6 -4 23 -9 38 -12 73 -13 156 -47 156 -63 0 -6 12 -48 26 -93 28 -87 75
-150 112 -150 11 0 24 -5 27 -10 8 -14 48 -13 63 2 17 17 40 -7 53 -55 11 -40
31 -65 79 -97 12 -8 31 -23 42 -32 12 -10 26 -18 32 -18 13 -1 66 -46 66 -56
0 -4 19 -30 43 -58 24 -28 49 -67 57 -86 7 -19 23 -48 35 -65 56 -76 91 -179
116 -342 26 -168 20 -379 -12 -425 -11 -15 -24 -28 -29 -28 -5 0 -21 -11 -37
-23 -31 -26 -162 -72 -233 -82 -54 -8 -80 -21 -80 -40 0 -8 -12 -23 -27 -32
-32 -21 -61 -52 -100 -106 -23 -33 -27 -49 -29 -118 -1 -45 3 -85 10 -94 15
-20 56 -8 57 16 2 23 1 21 23 94 19 65 73 155 93 155 7 0 18 9 25 20 7 11 21
20 32 20 10 0 24 7 30 15 6 8 49 24 96 37 47 12 87 26 88 30 2 4 14 8 26 8 24
0 66 26 66 41 0 5 16 23 34 40 27 23 37 41 42 77 11 69 8 258 -4 338 -6 38
-13 91 -16 118 -6 54 -28 129 -57 193 -10 24 -19 46 -19 51 0 4 -11 23 -23 42
-13 19 -38 62 -56 94 -54 99 -174 236 -207 236 -11 0 -36 17 -56 38 -33 34
-47 56 -78 123 -18 38 -72 61 -126 53 -55 -8 -68 2 -89 69 -19 61 -25 77 -52
137 l-21 46 -98 28 c-55 15 -128 34 -164 41 -91 19 -144 40 -148 59 -3 12 -13
16 -36 14 -35 -2 -119 37 -171 79 -65 53 -179 170 -204 208 -28 44 -64 114
-66 130 -1 6 -5 17 -8 25 -3 8 -11 42 -18 75 -14 75 -46 164 -68 189 -25 28
-62 39 -78 23 -16 -15 -7 -47 12 -47 12 0 55 -86 55 -110 0 -14 24 -94 52
-172 11 -31 17 -61 14 -67 -3 -5 -20 -13 -37 -16 -17 -4 -55 -24 -85 -45 -29
-20 -73 -42 -96 -48 -24 -6 -93 -22 -155 -36 -61 -15 -124 -33 -140 -41 -15
-8 -33 -15 -40 -15 -6 0 -35 -11 -64 -25 -58 -26 -108 -26 -184 1 -64 23 -351
2 -381 -29 -4 -4 -20 -7 -35 -7 -25 0 -115 -20 -229 -50 -19 -6 -68 -14 -109
-19 -63 -8 -88 -7 -160 11 -68 16 -105 19 -181 14 -103 -6 -271 -6 -335 0
-161 14 -250 15 -340 4 -55 -7 -105 -17 -110 -21 -6 -4 -28 -10 -50 -13 -22
-2 -82 -18 -133 -35 -103 -35 -190 -95 -258 -178 -21 -27 -47 -57 -59 -68 -70
-70 -298 -407 -370 -550 -14 -27 -41 -77 -61 -110 -19 -33 -42 -76 -51 -95 -8
-19 -20 -44 -26 -55 -6 -11 -27 -51 -47 -90 -20 -38 -48 -89 -63 -112 -15 -24
-27 -47 -27 -52 0 -5 -3 -11 -8 -13 -11 -4 -72 -103 -72 -115 0 -6 -7 -16 -14
-23 -8 -6 -25 -33 -37 -58 -13 -26 -38 -68 -56 -94 -18 -26 -33 -52 -33 -56 0
-5 -12 -27 -28 -48 -15 -21 -34 -52 -42 -69 -7 -16 -30 -50 -50 -75 -20 -25
-50 -70 -68 -101 -17 -30 -41 -64 -52 -74 -11 -10 -20 -23 -20 -29 0 -34 -279
-55 -347 -27 -22 9 -48 10 -97 3 -36 -5 -66 -6 -66 -3 1 12 26 37 52 50 16 8
28 19 28 26 0 18 -22 35 -46 35 -12 0 -24 7 -28 15 -6 17 -48 20 -77 4 -15 -7
-24 -7 -35 1 -17 15 -11 26 20 34 13 3 38 19 55 35 17 16 44 32 60 36 19 4 33
16 40 33 8 20 25 32 61 45 58 21 83 43 75 66 -3 11 5 25 25 39 16 13 30 31 30
40 0 10 11 28 25 40 14 12 25 29 25 37 0 8 4 15 10 15 5 0 12 11 16 25 4 14 9
24 12 21 6 -7 32 41 32 59 0 6 9 20 20 30 11 10 20 24 20 32 0 7 4 13 10 13 5
0 12 16 16 35 3 19 10 35 14 35 5 0 12 10 16 23 4 12 15 32 25 45 10 13 21 36
24 52 4 16 17 40 31 52 13 13 24 34 24 48 0 15 4 30 8 35 5 6 17 30 26 55 29
76 41 100 48 100 5 0 8 7 8 15 0 9 7 18 16 22 8 3 13 12 10 19 -3 8 -1 14 4
14 6 0 10 13 10 29 0 16 6 31 15 35 8 3 15 12 15 19 0 8 9 22 20 32 11 10 23
33 26 52 4 19 12 37 20 40 7 2 16 18 19 34 4 16 27 53 51 81 24 29 43 57 42
62 -1 12 13 50 44 115 12 25 23 59 26 75 6 52 8 60 16 81 4 11 12 31 17 45 10
28 37 157 38 180 0 8 3 49 6 90 10 134 11 263 3 370 -6 91 -14 155 -18 155 -1
0 -3 20 -6 45 -5 59 -35 202 -44 215 -4 6 -11 26 -15 45 -4 19 -18 58 -31 87
-13 28 -24 58 -24 66 0 9 -18 30 -41 49 -70 57 -84 71 -136 138 -54 70 -153
224 -153 239 0 5 -7 11 -15 15 -8 3 -15 14 -15 24 0 10 -5 23 -11 29 -15 15
-58 98 -136 263 -44 93 -47 101 -68 175 -20 73 -20 101 -1 255 3 25 7 72 9
105 1 33 5 65 8 70 10 17 2 316 -9 380 -6 33 -13 88 -16 123 -4 35 -10 71 -14
80 -5 9 -14 43 -21 74 -7 32 -17 60 -22 63 -5 4 -9 16 -9 28 0 12 -9 37 -21
56 -29 48 -23 66 16 45 17 -9 48 -25 70 -36 22 -10 48 -23 57 -28 42 -23 105
0 92 33 -3 9 -18 20 -33 23 -57 12 -132 44 -180 78 -28 20 -53 36 -55 36 -3 0
-16 10 -28 23 -13 12 -50 46 -81 75 -31 29 -57 61 -57 71 0 12 -16 26 -45 40
-25 12 -48 21 -52 21 -4 0 -53 23 -110 51 -158 79 -237 159 -231 236 3 36 5
38 33 35 17 -2 65 -14 108 -28 43 -13 132 -30 198 -36 107 -11 121 -10 135 4
25 25 10 46 -32 50 -21 2 -39 9 -42 17 -3 10 2 11 18 6 18 -6 27 -2 40 15 l17
22 24 -48 c16 -34 31 -50 47 -52 39 -6 26 54 -32 141 -44 65 -162 167 -246
213 -30 16 -64 37 -74 47 -11 9 -23 17 -27 17 -4 0 -24 17 -43 38 -30 31 -36
44 -36 81 0 41 32 126 55 144 5 4 33 7 61 5 42 -1 57 3 86 25 l36 27 65 -30
c36 -16 72 -30 81 -30 9 0 16 -4 16 -10 0 -5 5 -10 11 -10 5 0 35 -11 65 -25
30 -14 60 -25 67 -25 7 0 21 -7 31 -15 10 -8 23 -12 28 -9 4 3 25 -4 46 -14
20 -11 53 -26 72 -32 19 -7 64 -27 100 -45 36 -18 97 -41 136 -51 66 -16 74
-17 105 -2 23 11 37 14 45 7 8 -7 15 -6 19 1 4 6 13 9 19 7 7 -3 19 -1 26 3 8
5 18 6 22 4 5 -3 70 -7 146 -9 86 -2 156 -9 187 -19 206 -63 309 -122 439
-251 50 -49 113 -106 139 -125 26 -19 56 -42 67 -51 18 -15 37 -24 105 -48 11
-4 40 -17 65 -29 25 -12 70 -28 101 -36 51 -13 198 -77 223 -97 6 -5 31 -25
56 -45 24 -20 60 -60 79 -90 19 -30 38 -54 42 -54 5 0 9 -9 9 -19 0 -14 -10
-22 -32 -27 -110 -24 -442 -29 -578 -8 -108 16 -251 56 -311 86 -61 31 -100
63 -97 80 2 8 -6 13 -22 13 -22 0 -25 -3 -22 -34 4 -34 29 -80 45 -81 5 0 21
-8 35 -18 15 -10 43 -24 62 -31 19 -7 46 -19 60 -26 14 -7 41 -15 60 -18 19
-3 67 -13 105 -22 39 -9 90 -19 113 -22 24 -3 45 -11 47 -17 19 -72 64 -193
90 -241 63 -117 121 -214 134 -225 3 -3 24 -27 46 -55 63 -78 143 -151 212
-191 17 -11 53 -32 80 -47 50 -30 300 -117 334 -117 29 0 59 -18 59 -36 0 -8
8 -18 18 -21 9 -4 31 -16 47 -28 68 -49 132 -60 509 -90 38 -3 79 -8 91 -11
13 -3 26 -1 30 6 5 8 10 8 20 0 15 -13 51 -14 250 -12 72 1 154 0 182 -2 36
-2 57 1 64 11 13 15 39 14 373 -11 93 -7 178 -11 188 -8 10 2 24 0 31 -6 7 -6
22 -11 32 -11 11 1 45 -2 75 -5 30 -4 91 -9 135 -12 44 -3 94 -12 112 -20 17
-8 36 -14 41 -14 47 0 375 -243 451 -334 9 -10 38 -42 64 -70 63 -67 111 -140
168 -256 57 -118 86 -199 149 -430 11 -41 25 -88 30 -105 4 -16 16 -64 26
-105 9 -41 21 -80 26 -86 4 -6 15 -35 24 -64 19 -63 77 -176 110 -211 13 -14
24 -29 24 -35 0 -5 27 -37 58 -71 56 -60 57 -62 33 -65 -39 -4 -34 -39 6 -57
24 -11 37 -26 50 -60 12 -31 44 -73 101 -131 142 -144 181 -221 163 -328 -14
-86 2 -125 123 -307 57 -84 65 -103 80 -182 9 -48 19 -123 23 -166 6 -82 11
-92 43 -82 16 5 20 15 20 46 0 44 7 47 41 20 13 -10 29 -20 35 -22 10 -4 69
-71 145 -163 94 -115 163 -164 324 -227 80 -31 132 -81 217 -208 39 -58 72
-108 74 -110 3 -3 11 4 19 15 20 26 20 -1 0 -40 -20 -37 -19 -59 3 -72 14 -9
22 -8 37 5 24 21 45 56 45 76 0 8 5 15 10 15 6 0 10 9 10 20 0 11 9 34 20 52
11 18 20 43 20 55 0 12 5 25 10 28 6 3 10 16 10 29 0 12 4 26 9 31 15 15 47
152 56 243 3 24 7 47 9 51 3 4 7 29 11 57 3 27 10 78 16 114 12 75 14 144 4
160 -4 6 -9 35 -10 63 -7 93 -24 183 -55 292 -6 22 -15 56 -19 75 -9 42 -60
171 -72 185 -5 5 -9 18 -9 28 0 11 -11 40 -24 66 -14 25 -35 71 -47 101 -12
30 -34 71 -48 90 -30 40 -46 66 -60 97 -37 82 -148 221 -283 355 -85 84 -133
121 -229 180 -204 123 -230 138 -354 201 -66 34 -133 70 -150 82 -16 11 -37
25 -47 30 -47 29 -177 127 -203 153 -16 18 -35 32 -41 32 -7 0 -23 15 -37 34
-15 19 -39 47 -55 62 -60 62 -198 261 -337 489 -49 80 -239 295 -261 295 -3 0
-13 8 -24 18 -50 47 -269 136 -361 146 -30 4 -85 2 -124 -4 -84 -13 -90 -13
-135 -5 -19 4 -42 7 -50 7 -14 0 -124 10 -405 37 -136 13 -445 23 -445 13 0
-4 -116 -6 -257 -5 -225 2 -333 8 -533 28 -25 3 -89 9 -142 14 -53 5 -109 16
-125 25 -15 8 -22 15 -15 16 7 0 10 5 7 10 -3 6 -1 10 4 10 15 0 14 22 -1 43
-8 11 -32 19 -63 22 -174 16 -278 46 -453 127 -102 48 -264 193 -337 303 -43
65 -155 286 -155 307 0 7 -9 28 -21 47 -14 23 -17 37 -10 44 6 6 70 12 143 13
165 4 222 9 323 28 37 7 48 0 64 -41 14 -36 31 -42 51 -18 13 15 5 70 -11 80
-9 6 -49 87 -49 100 0 3 -4 11 -10 18 -5 7 -31 40 -56 74 -25 35 -64 78 -86
97 -52 45 -172 104 -313 155 -191 69 -210 77 -251 107 -88 64 -152 121 -173
151 -52 80 -301 225 -447 262 -21 5 -58 15 -82 21 -85 21 -443 9 -484 -16 -4
-3 -15 0 -25 5 -36 19 -231 101 -299 126 -85 31 -134 51 -199 80 -27 12 -75
33 -105 45 -30 12 -103 47 -163 76 -59 30 -113 54 -120 54 -6 -1 -24 -7 -39
-16z m122 -596 c0 -12 -1 -19 -3 -17 -1 2 -9 12 -16 22 -12 14 -11 17 3 17 10
0 16 -8 16 -22z m88 -56 c2 -15 -2 -22 -12 -22 -11 0 -16 9 -16 26 0 31 23 28
28 -4z m92 -72 c0 -6 -14 -10 -30 -10 -27 0 -29 2 -18 19 9 15 16 17 30 10 10
-5 18 -14 18 -19z m5322 -1789 c13 -5 50 -17 83 -26 224 -62 348 -183 591
-575 15 -25 45 -68 66 -96 21 -28 38 -54 38 -59 0 -4 15 -25 33 -46 17 -21 41
-50 52 -66 30 -41 153 -164 210 -209 28 -21 57 -45 65 -52 8 -6 44 -31 80 -55
91 -59 100 -64 140 -85 196 -103 280 -150 309 -173 13 -11 29 -19 35 -19 6 0
37 -20 68 -45 32 -25 60 -45 63 -45 2 0 28 -15 57 -34 89 -57 229 -188 266
-248 9 -16 20 -28 24 -28 4 0 14 -13 23 -29 8 -16 20 -35 28 -43 43 -44 199
-327 231 -418 8 -25 29 -81 46 -125 66 -168 111 -390 111 -540 0 -49 0 -118 0
-151 0 -75 -16 -177 -42 -263 -10 -35 -19 -73 -19 -84 0 -25 -57 -216 -71
-237 -5 -8 -14 -28 -20 -43 -11 -26 -12 -27 -24 -10 -7 10 -14 26 -16 35 -6
28 -110 169 -165 224 -52 52 -89 73 -210 118 -46 17 -88 42 -120 71 -27 24
-52 44 -55 45 -3 0 -22 24 -41 53 -43 63 -140 166 -188 198 -74 50 -92 69 -92
94 0 14 -5 25 -9 25 -5 0 -7 11 -3 25 3 14 3 33 -1 42 -5 10 -7 27 -6 39 2 18
-16 45 -90 131 -75 89 -133 237 -101 257 9 5 7 64 -2 94 -4 11 -9 30 -11 43
-12 62 -64 130 -242 314 -17 18 -33 94 -22 101 22 13 5 46 -44 89 -30 25 -71
69 -93 98 -21 29 -41 54 -45 57 -13 12 -68 118 -79 155 -7 22 -19 48 -28 58
-8 9 -13 20 -10 23 3 3 -7 44 -23 90 -16 47 -29 96 -29 109 0 13 -4 27 -10 30
-5 3 -9 16 -9 28 1 38 -11 98 -25 125 -8 15 -22 56 -31 92 -10 36 -22 69 -26
75 -5 5 -9 18 -9 30 0 12 -7 30 -15 41 -8 10 -15 27 -15 36 0 26 -68 150 -138
254 -56 82 -225 274 -242 274 -4 0 -27 18 -51 41 -49 46 -204 159 -218 159
-13 0 -32 26 -24 33 9 10 68 8 95 -2z m-500 -2035 c20 -38 130 -149 194 -197
57 -43 70 -51 153 -97 28 -15 41 -29 42 -45 1 -59 -2 -401 -8 -647 -6 -322 0
-386 52 -488 44 -85 59 -198 31 -221 -9 -7 -16 -19 -16 -25 -1 -20 -45 -61
-87 -80 -27 -12 -43 -26 -45 -40 -3 -18 -11 -21 -56 -24 -37 -2 -57 1 -68 12
-14 14 -18 14 -44 1 -16 -8 -32 -19 -35 -25 -3 -5 -12 -10 -20 -10 -19 0 -83
-44 -114 -79 -48 -53 -118 -100 -140 -94 -14 3 -30 -2 -42 -13 l-21 -19 6 55
c6 49 4 58 -17 85 l-25 30 -62 -33 c-35 -18 -65 -30 -68 -27 -3 3 0 5 6 5 7 0
12 6 12 14 0 8 9 17 19 21 23 7 33 29 24 51 -5 13 -15 15 -49 10 -43 -6 -50
-8 -111 -40 -48 -25 -52 -19 -10 19 21 19 44 35 51 35 8 0 16 7 20 15 3 8 12
15 19 15 8 0 20 7 27 15 7 8 24 15 39 15 54 -2 91 7 161 36 37 16 95 88 132
164 12 25 27 52 35 61 11 13 14 66 15 235 2 208 1 225 -26 334 -15 63 -32 123
-37 132 -5 10 -9 26 -9 36 0 10 -5 23 -11 29 -6 6 -12 39 -14 74 -5 88 -38
209 -78 285 -37 69 -120 131 -208 154 -46 13 -109 84 -109 123 0 22 5 26 48
31 26 3 57 6 69 6 12 0 25 5 28 10 3 6 23 10 43 10 37 0 142 46 142 62 0 4 9
8 20 8 11 0 20 4 20 9 0 12 47 29 82 30 19 1 31 -6 40 -23z m-2396 -268 c5 -6
-9 -36 -32 -68 -16 -23 -59 -135 -94 -245 -18 -55 -38 -113 -45 -130 -23 -54
-35 -110 -46 -216 -5 -57 -14 -108 -18 -114 -5 -5 -12 -26 -16 -45 -4 -19 -11
-39 -14 -45 -20 -28 -43 -113 -46 -168 -7 -117 -15 -177 -35 -260 -27 -109
-54 -183 -67 -180 -11 2 -16 -2 -95 -91 -29 -32 -60 -66 -68 -75 -18 -20 -68
-95 -91 -136 -21 -39 -98 -63 -229 -73 -131 -10 -150 -7 -150 24 0 13 4 32 9
42 26 52 31 86 15 104 -35 38 -154 -14 -169 -74 -5 -20 -12 -25 -31 -23 -29 3
-44 16 -26 22 8 3 11 15 6 37 -7 39 13 64 57 73 36 7 39 37 7 54 -13 7 -24 12
-26 11 -45 -26 -61 -31 -56 -18 3 8 19 20 35 26 16 7 29 16 29 20 0 4 26 20
58 36 31 15 59 32 60 36 2 4 12 8 23 8 10 0 19 5 19 10 0 6 9 10 19 10 11 0
23 5 26 10 3 6 24 10 45 10 35 0 43 4 65 40 14 23 32 43 39 46 7 3 19 20 26
39 8 19 19 35 25 35 15 0 85 143 85 174 0 15 7 37 15 49 8 12 14 31 15 42 0
24 6 106 15 200 3 39 7 90 9 115 2 25 6 63 9 85 6 43 20 235 22 300 1 22 4 47
8 55 5 13 11 47 19 108 2 21 69 67 118 82 25 7 50 18 57 23 7 5 22 8 35 6 13
-1 36 3 51 10 16 6 32 9 37 6 5 -3 12 -1 15 5 4 6 15 8 24 5 10 -3 28 -2 39 2
24 9 209 9 218 1z m-1116 -1768 c0 -5 -7 -10 -16 -10 -8 0 -12 5 -9 10 3 6 10
10 16 10 5 0 9 -4 9 -10z m-1420 -270 c0 -13 -28 -25 -38 -16 -3 4 0 11 8 16
20 13 30 12 30 0z" />
		<path d="M6880 3381 c0 -12 18 -30 53 -50 28 -17 101 -61 160 -97 96 -59 112
-65 133 -55 13 6 24 15 24 20 0 12 -86 71 -104 71 -7 0 -24 9 -37 21 -102 87
-229 138 -229 90z" />
		<path d="M7445 3210 c-7 -12 3 -50 13 -50 4 0 19 -10 33 -22 14 -13 32 -27 41
-33 145 -94 273 -203 320 -271 26 -39 53 -51 73 -34 20 17 19 24 -10 51 -13
13 -25 28 -25 32 0 16 -220 217 -237 217 -5 0 -44 27 -88 60 -78 58 -107 71
-120 50z" />
		<path d="M7301 3077 c-22 -22 -10 -44 52 -84 34 -23 104 -84 156 -137 52 -53
97 -96 102 -96 19 0 39 32 30 48 -10 19 -193 196 -232 225 -50 38 -95 57 -108
44z" />
		<path d="M7973 2733 c-23 -8 -14 -42 26 -101 21 -31 47 -73 57 -92 10 -19 24
-42 30 -50 22 -31 112 -294 129 -377 8 -38 26 -56 49 -47 57 22 -98 450 -227
623 -34 46 -43 53 -64 44z" />
		<path d="M7861 2397 c-17 -17 -13 -31 17 -70 65 -84 132 -228 178 -382 34
-115 45 -136 68 -133 13 2 22 11 24 26 3 21 -19 104 -38 142 -4 9 -11 31 -15
50 -11 53 -88 220 -120 260 -6 8 -23 36 -38 61 -27 47 -57 65 -76 46z" />
		<path d="M1337 6790 c-40 -12 -57 -29 -57 -57 0 -40 16 -64 93 -143 42 -44
114 -74 182 -77 56 -3 61 -1 83 26 22 29 22 31 5 63 -37 70 -57 94 -102 124
-82 54 -156 78 -204 64z m243 -197 c0 -13 -51 -18 -62 -7 -4 3 1 19 10 35 l17
29 17 -23 c10 -12 18 -28 18 -34z" />
		<path d="M2232 6333 c-5 -10 -14 -37 -22 -60 -12 -38 -11 -44 10 -77 23 -39
41 -51 108 -78 30 -11 51 -14 72 -8 17 5 44 4 63 -1 67 -18 160 -18 187 1 14
9 30 15 36 13 16 -5 27 46 14 62 -5 7 -35 15 -66 19 -38 4 -79 19 -123 44 -96
54 -210 102 -242 102 -17 0 -32 -7 -37 -17z" />
		<path d="M1933 5998 c-4 -7 -8 -38 -8 -68 -1 -31 -9 -69 -19 -88 -25 -49 -85
-102 -136 -122 -48 -19 -63 -47 -36 -69 21 -18 97 12 142 55 19 17 34 29 34
26 0 -2 13 12 29 32 30 38 47 88 37 105 -4 5 -2 12 4 16 13 8 13 81 0 106 -12
22 -35 25 -47 7z" />
		<path d="M835 5699 c-11 -17 6 -127 21 -140 41 -34 60 69 22 124 -21 29 -33
34 -43 16z" />
		<path d="M1028 5575 c-9 -20 -4 -43 27 -137 20 -62 43 -120 51 -129 8 -8 14
-21 14 -28 0 -13 36 -7 53 9 7 6 -21 81 -54 142 -5 10 -9 26 -9 36 0 10 -7 41
-17 68 -23 68 -45 82 -65 39z" />
		<path d="M1931 5483 c-7 -13 -2 -28 20 -60 28 -41 87 -93 104 -93 5 0 16 -7
25 -15 25 -23 76 -35 89 -22 21 21 11 36 -46 68 -32 18 -82 57 -111 86 -58 58
-66 61 -81 36z" />
		<path d="M914 5457 c-3 -13 0 -59 5 -103 22 -157 26 -170 87 -311 9 -22 21
-33 34 -33 32 0 34 24 6 87 -32 72 -69 242 -67 307 1 26 -3 54 -10 62 -18 22
-48 17 -55 -9z" />
		<path d="M1670 5461 c0 -46 157 -249 226 -292 41 -25 54 -24 54 5 0 16 -23 48
-72 98 -72 73 -118 132 -142 179 -16 32 -66 40 -66 10z" />
		<path d="M1187 5463 c-15 -14 -4 -70 21 -118 26 -48 71 -83 91 -70 11 6 -13
71 -35 96 -8 8 -14 22 -14 31 0 17 -37 68 -49 68 -4 0 -11 -3 -14 -7z" />
		<path d="M1370 5338 c1 -37 46 -198 59 -211 22 -22 43 21 36 73 -13 95 -44
160 -76 160 -13 0 -19 -7 -19 -22z" />
		<path d="M1532 5308 c-17 -17 -15 -21 13 -52 14 -15 25 -33 25 -40 0 -7 9 -31
20 -54 11 -22 20 -45 20 -51 0 -13 37 -24 50 -16 13 8 4 60 -14 90 -7 11 -16
36 -20 55 -11 60 -64 98 -94 68z" />
		<path d="M1221 4946 c-13 -16 -9 -34 38 -168 35 -100 52 -118 82 -82 13 16 9
34 -24 114 -6 14 -11 27 -12 30 -21 61 -48 113 -61 117 -6 2 -17 -3 -23 -11z" />
		<path d="M1565 4926 c-19 -14 -19 -15 -2 -48 9 -18 21 -40 27 -48 5 -8 37 -60
70 -115 101 -166 172 -246 203 -228 15 9 6 50 -14 69 -28 24 -181 258 -199
302 -14 36 -47 82 -59 82 -4 0 -16 -6 -26 -14z" />
		<path d="M2194 4869 c-10 -16 15 -55 44 -69 14 -6 42 -24 63 -41 20 -16 40
-29 44 -29 4 0 26 -15 49 -34 46 -39 92 -60 113 -52 27 11 11 37 -49 81 -35
25 -68 49 -73 53 -6 5 -42 30 -80 55 -70 47 -98 56 -111 36z" />
		<path d="M1873 4853 c-7 -2 -13 -16 -13 -29 0 -18 28 -52 102 -124 56 -55 105
-100 109 -100 4 0 17 9 30 19 l24 19 -30 23 c-17 13 -70 63 -119 111 -49 48
-89 88 -90 87 0 0 -7 -3 -13 -6z" />
		<path d="M968 4738 c-6 -40 12 -152 32 -193 10 -22 21 -51 25 -65 5 -14 16
-41 26 -60 11 -19 19 -39 19 -45 0 -17 100 -177 142 -228 46 -54 69 -70 92
-61 26 10 18 41 -18 71 -40 33 -75 86 -138 205 -26 49 -51 95 -56 101 -15 20
-73 233 -67 248 7 19 -5 35 -32 43 -17 6 -22 2 -25 -16z" />
		<path d="M4493 4705 c-9 -26 11 -50 43 -51 16 0 72 -4 124 -8 218 -17 408 -20
470 -8 26 6 36 14 38 30 2 12 -3 24 -10 27 -7 2 -125 6 -263 9 -137 3 -283 8
-322 12 -63 5 -74 4 -80 -11z" />
		<path d="M1133 4625 c-3 -9 10 -41 29 -73 19 -31 46 -76 58 -99 13 -24 27 -43
31 -43 19 0 39 14 39 27 0 16 -57 129 -75 149 -5 7 -18 21 -27 33 -21 25 -46
27 -55 6z" />
		<path d="M5582 4618 c-20 -20 5 -45 90 -88 46 -23 92 -51 104 -61 11 -10 24
-19 28 -19 10 0 75 -55 133 -112 24 -24 63 -83 91 -137 34 -67 55 -96 67 -96
27 0 39 26 25 55 -12 28 -15 34 -79 138 -43 71 -162 192 -188 192 -7 0 -13 4
-13 10 0 5 -21 21 -47 36 -27 14 -75 41 -108 59 -65 37 -85 41 -103 23z" />
		<path d="M1466 4317 c-19 -14 -19 -16 13 -73 18 -33 44 -73 57 -91 13 -17 24
-35 24 -39 0 -3 15 -28 34 -54 19 -26 41 -62 50 -79 24 -45 74 -93 94 -89 32
6 23 37 -38 119 -34 46 -71 103 -82 127 -12 24 -27 46 -35 49 -7 3 -13 11 -13
18 0 7 -12 29 -27 48 -16 20 -35 46 -43 57 -13 19 -17 20 -34 7z" />
		<path d="M5807 4313 c-17 -17 -3 -48 41 -91 59 -58 132 -175 163 -262 34 -98
48 -111 69 -61 26 64 -68 243 -198 377 -40 42 -61 52 -75 37z" />
		<path d="M1881 4187 c-6 -6 -11 -16 -11 -23 0 -35 187 -153 209 -131 6 6 11
16 11 23 0 14 -78 74 -95 74 -7 0 -20 9 -31 21 -30 33 -69 50 -83 36z" />
		<path d="M1442 3978 c-20 -20 -14 -30 54 -103 37 -38 86 -98 111 -132 25 -35
51 -63 58 -63 18 0 38 27 31 42 -26 54 -214 268 -235 268 -4 0 -12 -5 -19 -12z" />
		<path d="M6184 3896 c-14 -38 53 -222 95 -260 20 -18 23 -19 38 -3 16 16 15
21 -14 79 -17 35 -35 77 -39 93 -4 17 -9 35 -13 40 -3 6 -7 19 -8 30 -6 33
-49 48 -59 21z" />
		<path d="M6350 3415 c-10 -12 -8 -29 10 -87 20 -65 37 -102 141 -297 37 -70
103 -151 124 -151 33 0 20 67 -20 100 -8 7 -33 47 -54 89 -47 93 -88 170 -100
185 -4 6 -16 43 -26 81 -25 95 -45 117 -75 80z" />
		<path d="M2200 2525 c-72 -49 -158 -139 -220 -228 -42 -61 -47 -76 -29 -94 14
-14 59 4 59 24 0 7 4 13 9 13 5 0 12 8 16 19 3 10 32 46 65 80 33 33 60 67 60
73 0 7 18 22 40 32 22 11 46 29 55 42 10 15 21 21 35 17 17 -4 20 -1 20 25 0
27 -15 43 -38 42 -4 0 -36 -21 -72 -45z" />
		<path d="M7402 1568 c-14 -14 -15 -42 -2 -66 12 -21 54 -134 70 -187 7 -22 18
-49 25 -60 6 -11 18 -38 25 -60 7 -22 33 -87 57 -144 26 -61 41 -110 37 -120
-3 -9 -8 -29 -10 -45 -2 -16 -8 -34 -13 -40 -6 -7 -12 -24 -15 -40 -6 -31 -85
-176 -97 -176 -4 0 -14 -11 -23 -24 -14 -21 -14 -28 -2 -52 8 -14 12 -32 10
-38 -4 -10 -104 -56 -124 -56 -5 0 -21 -5 -37 -12 -15 -7 -32 -12 -38 -13 -25
-3 -116 -37 -280 -105 -46 -19 -142 -47 -164 -48 -13 -1 -27 -5 -30 -10 -3 -5
-15 -12 -27 -16 -11 -3 -33 -20 -49 -36 l-29 -30 -11 32 c-14 41 -9 58 17 58
14 0 18 5 14 16 -3 9 -6 19 -6 24 0 21 -40 18 -84 -6 -26 -14 -50 -24 -53 -20
-10 10 18 65 37 71 36 12 32 85 -4 85 -36 0 -103 -117 -112 -194 -6 -48 -4
-55 14 -65 17 -9 26 -6 51 15 17 14 31 21 31 15 0 -6 7 -11 15 -11 11 0 13 -9
9 -43 -5 -32 -2 -46 10 -56 9 -7 16 -21 16 -31 0 -24 25 -43 48 -35 13 4 18
12 15 24 -2 9 3 23 11 30 9 8 16 18 16 23 0 12 50 73 50 61 0 -4 5 -1 10 9 6
10 29 19 62 23 57 7 98 23 111 42 4 6 42 19 85 28 42 10 87 24 100 32 12 7 26
12 30 9 4 -2 28 5 52 18 25 12 65 28 90 35 25 7 64 22 88 33 23 12 45 18 49
15 3 -4 12 -2 19 4 8 6 20 9 28 6 24 -9 33 14 33 81 0 51 4 67 21 82 11 11 24
30 27 42 4 13 17 33 28 45 11 13 17 26 14 30 -4 3 -1 16 6 27 8 12 20 42 27
68 l14 48 23 -22 c22 -20 25 -21 40 -5 16 15 12 25 -45 144 -56 119 -72 156
-123 287 -10 27 -23 54 -29 60 -5 5 -10 15 -10 22 0 6 -8 29 -17 50 -9 22 -18
48 -20 58 -2 11 -8 25 -13 31 -6 7 -8 20 -4 29 7 19 -21 66 -39 66 -7 0 -18
-5 -25 -12z" />
	</g>
</svg>