<?xml version="1.0" encoding="iso-8859-1"?>
<!-- Generator: Adobe Illustrator 19.0.0, SVG Export Plug-In . SVG Version: 6.00 Build 0)  -->
<svg version="1.1" id="Layer_1" xmlns="http://www.w3.org/2000/svg" xmlns:xlink="http://www.w3.org/1999/xlink" x="0px"
	y="0px" viewBox="0 0 512 512" style="enable-background:new 0 0 512 512;" xml:space="preserve">
	<circle style="fill:#FD9A0C;" cx="256" cy="256" r="256" />
	<circle style="fill:#FFAD38;" cx="256" cy="256" r="194.673" />
	<path style="fill:#FFC066;" d="M407.177,256c0-8.389-0.694-16.615-2.009-24.632l11.129-11.856l-9.166-28.213l-15.958-3.047
	c-7.453-14.841-17.275-28.284-28.975-39.834l2.038-16.158l-24-17.437l-14.701,6.915c-14.422-7.484-30.199-12.716-46.87-15.223
	l-7.834-14.243h-29.664l-7.833,14.243c-16.671,2.506-32.448,7.739-46.87,15.223l-14.701-6.915l-24,17.437l2.038,16.158
	c-11.699,11.55-21.522,24.993-28.975,39.834l-15.958,3.047l-9.166,28.213l11.129,11.856c-1.314,8.016-2.009,16.243-2.009,24.632
	c0,8.389,0.694,16.615,2.009,24.632l-11.129,11.856l9.166,28.213l15.958,3.047c7.453,14.841,17.275,28.284,28.975,39.834
	l-2.038,16.158l24,17.437l14.701-6.915c14.422,7.484,30.199,12.717,46.87,15.223l7.833,14.243h29.664l7.833-14.243
	c16.671-2.506,32.448-7.739,46.87-15.223l14.701,6.915l24-17.437l-2.038-16.158c11.699-11.55,21.522-24.993,28.975-39.834
	l15.958-3.047l9.166-28.213l-11.129-11.856C406.482,272.615,407.177,264.389,407.177,256z" />
	<path style="fill:#FFAD38;" d="M256,492.308c-18.77,0-37.456-2.209-55.539-6.565c-4.531-1.092-7.32-5.65-6.228-10.182
	c1.092-4.531,5.652-7.317,10.181-6.228c33.579,8.091,69.587,8.09,103.17,0c4.531-1.092,9.09,1.698,10.181,6.228
	c1.092,4.531-1.697,9.09-6.228,10.182C293.454,490.099,274.768,492.308,256,492.308z" />
	<circle style="fill:#FD9A0C;" cx="256" cy="256" r="107.115" />
	<polygon style="fill:#FFAD38;"
		points="148.881,256 202.44,225.436 256,256 309.56,225.436 363.119,256 256,275.866 " />
	<g>
		<polygon style="fill:#FFC066;" points="363.119,256 148.881,256 256,363.119 	" />
		<circle style="fill:#FFC066;" cx="256" cy="202.437" r="16.879" />
	</g>
	<circle style="fill:#FD9A0C;" cx="256" cy="299.436" r="11.815" />
	<g>
		<path style="fill:#FFAD38;" d="M393.062,446.5c-2.559,0-5.086-1.159-6.745-3.359c-2.806-3.721-2.064-9.013,1.658-11.819
		c55.578-41.907,87.454-105.81,87.454-175.322c0-50.392-16.624-97.784-48.075-137.054c-2.913-3.638-2.326-8.949,1.312-11.863
		c3.639-2.914,8.949-2.325,11.863,1.312c33.874,42.295,51.78,93.335,51.78,147.605c0,37.726-8.627,73.782-25.644,107.167
		c-16.225,31.835-39.922,60.063-68.528,81.631C396.614,445.945,394.831,446.5,393.062,446.5z" />
		<path style="fill:#FFAD38;" d="M118.935,446.497c-1.769,0-3.552-0.554-5.075-1.701C85.255,423.227,61.559,395,45.335,363.166
		C28.32,329.781,19.692,293.725,19.692,256c0-31.836,6.227-62.731,18.51-91.827c1.812-4.294,6.762-6.306,11.057-4.493
		c4.294,1.813,6.306,6.763,4.493,11.057c-11.4,27.008-17.181,55.694-17.181,85.263c0,69.51,31.875,133.413,87.451,175.318
		c3.721,2.806,4.464,8.098,1.658,11.82C124.021,445.338,121.493,446.497,118.935,446.497z" />
		<path style="fill:#FFAD38;" d="M61.377,145.859c-1.499,0-3.017-0.399-4.39-1.238c-3.978-2.429-5.234-7.623-2.804-11.602
		c20.732-33.954,49.923-62.358,84.415-82.143C174.166,30.476,214.763,19.692,256,19.692c20.911,0,41.696,2.751,61.78,8.178
		c4.5,1.216,7.161,5.849,5.946,10.349c-1.215,4.499-5.841,7.166-10.349,5.946c-18.648-5.039-37.952-7.594-57.377-7.594
		c-77.111,0-147.171,39.344-187.411,105.246C66.999,144.421,64.222,145.859,61.377,145.859z" />
		<path style="fill:#FFAD38;" d="M410.951,97.387c-2.055,0-4.114-0.746-5.739-2.253c-18.09-16.787-38.675-30.305-61.182-40.175
		c-4.268-1.872-6.212-6.85-4.339-11.119c1.872-4.267,6.85-6.21,11.119-4.339c24.242,10.63,46.409,25.186,65.885,43.26
		c3.417,3.171,3.616,8.51,0.446,11.927C415.477,96.48,413.217,97.387,410.951,97.387z" />
	</g>
	<g>
	</g>
	<g>
	</g>
	<g>
	</g>
	<g>
	</g>
	<g>
	</g>
	<g>
	</g>
	<g>
	</g>
	<g>
	</g>
	<g>
	</g>
	<g>
	</g>
	<g>
	</g>
	<g>
	</g>
	<g>
	</g>
	<g>
	</g>
	<g>
	</g>
</svg>