<?xml version="1.0" encoding="iso-8859-1"?>
<!-- Generator: Adobe Illustrator 19.0.0, SVG Export Plug-In . SVG Version: 6.00 Build 0)  -->
<svg version="1.1" id="Layer_1" xmlns="http://www.w3.org/2000/svg" xmlns:xlink="http://www.w3.org/1999/xlink" x="0px" y="0px"
	 viewBox="0 0 512 512" style="enable-background:new 0 0 512 512;" xml:space="preserve">
<circle style="fill:#A8A2A2;" cx="256" cy="256" r="256"/>
<circle style="fill:#8C8484;" cx="256" cy="256" r="227.868"/>
<path style="fill:#A8A2A2;" d="M256,102.4c-84.831,0-153.6,68.769-153.6,153.6S171.169,409.6,256,409.6S409.6,340.831,409.6,256
	S340.831,102.4,256,102.4z M256,321.616c-36.238,0-65.616-29.376-65.616-65.616s29.378-65.616,65.616-65.616
	s65.616,29.376,65.616,65.616S292.238,321.616,256,321.616z"/>
<polygon style="fill:#EBEAEA;" points="288.902,336.602 288.902,139.532 223.007,139.532 200.487,151.297 200.487,174.212 
	223.098,174.212 223.098,336.602 200.487,341.667 200.487,363.466 311.513,363.466 311.513,341.667 "/>
<g>
	<path style="fill:#D2CFCE;" d="M370.203,417.223c-2.569,0-5.105-1.168-6.763-3.381c-2.793-3.731-2.033-9.021,1.698-11.814
		c13.998-10.48,26.409-22.89,36.889-36.889c2.793-3.73,8.082-4.491,11.814-1.698c3.73,2.793,4.491,8.083,1.698,11.814
		c-11.444,15.287-24.998,28.841-40.285,40.285C373.738,416.675,371.962,417.223,370.203,417.223z"/>
	<path style="fill:#D2CFCE;" d="M278.495,453.846c-4.221,0-7.867-3.16-8.371-7.455c-0.543-4.629,2.767-8.822,7.396-9.367
		c17.393-2.045,34.343-6.575,50.379-13.465c4.283-1.841,9.246,0.14,11.086,4.422c1.84,4.283-0.14,9.246-4.422,11.086
		c-17.532,7.533-36.061,12.486-55.071,14.721C279.157,453.828,278.824,453.846,278.495,453.846z"/>
	<path style="fill:#D2CFCE;" d="M141.797,417.223c-1.76,0-3.534-0.548-5.051-1.685c-15.287-11.444-28.841-24.998-40.285-40.285
		c-2.793-3.73-2.033-9.02,1.698-11.814c3.731-2.794,9.021-2.032,11.814,1.698c10.48,13.998,22.89,26.409,36.889,36.889
		c3.73,2.793,4.491,8.083,1.698,11.814C146.902,416.055,144.365,417.223,141.797,417.223z"/>
	<path style="fill:#D2CFCE;" d="M233.505,453.846c-0.329,0-0.661-0.019-0.996-0.059c-19.012-2.235-37.539-7.188-55.071-14.721
		c-4.283-1.84-6.262-6.803-4.422-11.086c1.84-4.283,6.805-6.262,11.086-4.422c16.035,6.89,32.985,11.419,50.379,13.465
		c4.629,0.545,7.941,4.737,7.396,9.367C241.371,450.686,237.726,453.846,233.505,453.846z"/>
</g>
<g>
</g>
<g>
</g>
<g>
</g>
<g>
</g>
<g>
</g>
<g>
</g>
<g>
</g>
<g>
</g>
<g>
</g>
<g>
</g>
<g>
</g>
<g>
</g>
<g>
</g>
<g>
</g>
<g>
</g>
</svg>
